<svg width="30" height="32" viewBox="0 0 30 32" fill="none" xmlns="http://www.w3.org/2000/svg">
<path fill-rule="evenodd" clip-rule="evenodd" d="M5.91132 0.107222C4.89083 0.371219 4.00093 1.23725 3.73299 2.22713C3.65033 2.53255 3.63312 3.07742 3.63312 5.38971V8.18327L3.42207 8.30967C2.85588 8.64871 2.25313 9.44364 1.96221 10.2349L1.7824 10.7241L1.76597 15.879C1.75292 19.9584 1.76675 21.0664 1.83227 21.1891C2.00468 21.5124 2.5173 21.5144 2.69036 21.1924C2.77607 21.0328 2.78893 20.3555 2.78893 15.9872C2.78893 11.5875 2.80166 10.9234 2.89186 10.6261C3.16986 9.7097 3.92475 8.97063 4.87284 8.68677C5.25338 8.57279 5.63092 8.56836 14.9912 8.56836C23.6753 8.56836 24.7519 8.57892 25.0669 8.6674C25.9582 8.91777 26.7081 9.58867 27.0546 10.4456C27.1493 10.6797 27.1728 11.0259 27.2025 12.6198L27.2379 14.5156L27.3912 14.635C27.5871 14.7875 27.863 14.7874 28.0587 14.6347L28.212 14.5152L28.211 12.6196L28.21 10.7241L28.0312 10.2349C27.7424 9.44514 27.1393 8.64921 26.5723 8.30967L26.3613 8.18327V5.38971C26.3613 3.07742 26.3441 2.53255 26.2614 2.22713C25.9877 1.21632 25.1051 0.367282 24.0537 0.103786C23.4929 -0.0367418 6.45544 -0.0335551 5.91132 0.107222ZM24.0508 1.11828C24.5707 1.34897 24.9035 1.65402 25.1404 2.11697L25.3547 2.53561L25.3742 5.1359L25.3937 7.73619L24.9846 7.65371C24.6564 7.58754 22.6809 7.57123 14.9972 7.57123C7.31346 7.57123 5.33799 7.58754 5.0098 7.65371L4.60069 7.73619L4.62017 5.1374C4.6392 2.60172 4.64316 2.5313 4.7844 2.23681C5.08785 1.60422 5.56832 1.20201 6.22601 1.03012C6.45654 0.969881 8.44545 0.95526 15.1271 0.964508L23.7313 0.976505L24.0508 1.11828ZM6.18932 2.0806C5.92671 2.20295 5.90593 2.36722 5.90593 4.31886V6.18695L6.05802 6.3571C6.25036 6.57229 6.56525 6.58698 6.76999 6.39028C6.8987 6.26656 6.91455 6.17789 6.93403 5.47382L6.95552 4.69433H7.69172H8.42792L8.44941 5.47382C8.47298 6.3271 8.52604 6.45039 8.90767 6.54005C9.05028 6.57354 9.12268 6.54499 9.28107 6.39259L9.4775 6.20357V4.27349C9.4775 2.42108 9.47218 2.33804 9.34581 2.20751C9.15892 2.01443 8.92514 1.97288 8.72734 2.0976C8.49103 2.24656 8.4385 2.43558 8.4385 3.13628V3.75706H7.6973H6.95611L6.93429 3.03293C6.91305 2.32848 6.90753 2.30474 6.73025 2.15815C6.53473 1.99644 6.40868 1.97838 6.18932 2.0806ZM11.7525 2.10366C10.5005 2.44108 9.74452 3.69289 10.0915 4.85416C10.3064 5.57373 10.7272 6.03624 11.461 6.35947C11.9604 6.57948 12.6473 6.58741 13.2114 6.37965C13.746 6.18277 14.3369 5.61628 14.5321 5.11372C14.7205 4.62847 14.7226 3.95307 14.5371 3.47607C14.1342 2.43983 12.8513 1.80755 11.7525 2.10366ZM14.9735 2.13703C14.8415 2.23688 14.8024 2.32161 14.8024 2.50737C14.8024 2.83698 15.0266 3.00725 15.4605 3.00725H15.7764V4.5971C15.7764 6.17421 15.7777 6.18833 15.9285 6.3571C16.1209 6.57236 16.4358 6.58698 16.6405 6.39021C16.7788 6.25718 16.7836 6.20545 16.8023 4.63022L16.8216 3.00725H17.1344C17.5651 3.00725 17.7895 2.83598 17.7895 2.50737C17.7895 2.32161 17.7504 2.23688 17.6184 2.13703C17.4599 2.01706 17.3624 2.0075 16.2959 2.0075C15.2295 2.0075 15.1319 2.01706 14.9735 2.13703ZM21.9654 2.15827L21.7832 2.30911V4.28105C21.7832 6.73225 21.6845 6.53761 22.927 6.53761H23.775L23.9318 6.36228C24.1318 6.1384 24.1309 5.91671 23.929 5.72251C23.788 5.58673 23.7133 5.56911 23.2797 5.56911H22.7897V3.98088C22.7897 3.10735 22.7715 2.3471 22.7494 2.29149C22.705 2.18033 22.3978 2.0075 22.2446 2.0075C22.1912 2.0075 22.0656 2.07536 21.9654 2.15827ZM18.6384 2.23463C18.5088 2.39315 18.5039 2.46994 18.5059 4.31223C18.508 6.32242 18.511 6.34398 18.808 6.49619C19.0242 6.60697 20.5408 6.59248 20.772 6.47744C21.0838 6.32229 21.1329 5.96876 20.877 5.72251C20.7312 5.58223 20.6673 5.56911 20.1302 5.56911H19.5428V5.16296V4.75681H20.0948C20.7348 4.75681 20.9065 4.65996 20.9065 4.29905C20.9065 3.93764 20.7016 3.81954 20.0744 3.81954H19.5428V3.4134V3.00725H20.1484C20.6975 3.00725 20.7672 2.99375 20.8952 2.86266C21.0828 2.67052 21.0787 2.37997 20.8861 2.20582C20.7455 2.07873 20.6727 2.06998 19.7544 2.06998H18.773L18.6384 2.23463ZM13.105 3.21994C13.4273 3.43489 13.699 3.92364 13.697 4.2848C13.6951 4.62266 13.5108 4.99531 13.2272 5.235C12.3561 5.97094 11.036 5.39315 11.036 4.27587C11.036 3.49694 11.6114 2.98475 12.4415 3.02449C12.753 3.03936 12.8985 3.08223 13.105 3.21994ZM5.75268 11.2947C5.3352 11.4181 4.86239 11.869 4.71543 12.2839C4.56575 12.7066 4.55608 15.5665 4.70271 16.0395C4.82719 16.4409 5.09473 16.7449 5.52566 16.9746L5.87347 17.16H7.00987H8.14628L8.50344 16.9673C8.89157 16.7578 9.23119 16.3486 9.34548 15.9526C9.3823 15.825 9.41198 15.0397 9.41217 14.1877C9.41263 12.3435 9.37217 12.1476 8.89618 11.6896C8.46253 11.2724 8.14829 11.1915 6.98182 11.1971C6.36777 11.2 5.96483 11.232 5.75268 11.2947ZM13.74 11.2947C13.5266 11.3577 13.3232 11.4854 13.1117 11.6888C12.6355 12.147 12.5945 12.3442 12.5945 14.1756C12.5945 15.0406 12.6242 15.8119 12.6633 15.9607C12.7658 16.3516 13.105 16.7575 13.5088 16.9725L13.8608 17.16H14.9972C16.0442 17.16 16.1546 17.1492 16.4009 17.0224C16.8108 16.8114 17.0302 16.6081 17.2064 16.2761C17.3638 15.9794 17.3679 15.9366 17.3876 14.3304C17.4119 12.3537 17.3756 12.1631 16.8845 11.6906C16.4497 11.2722 16.1364 11.1915 14.9691 11.1971C14.3551 11.2 13.9522 11.232 13.74 11.2947ZM21.7273 11.2947C21.5139 11.3577 21.3105 11.4854 21.0991 11.6888C20.6221 12.1477 20.5818 12.3429 20.5822 14.1877C20.5824 15.0397 20.6121 15.825 20.6489 15.9526C20.7632 16.3486 21.1028 16.7578 21.491 16.9673L21.8481 17.16H22.9845C24.0953 17.16 24.1285 17.1561 24.4553 16.9903C24.8698 16.7799 25.1667 16.4423 25.2917 16.0395C25.4383 15.5665 25.4286 12.7066 25.279 12.2839C25.1262 11.8524 24.6612 11.4188 24.2145 11.2911C23.7532 11.1593 22.1777 11.1616 21.7273 11.2947ZM8.18375 12.3751L8.37356 12.5577V14.192V15.8262L8.18375 16.0088L7.99394 16.1915H7.00987H6.02581L5.836 16.0088L5.64618 15.8262V14.192V12.5577L5.836 12.3751L6.02581 12.1925H7.00987H7.99394L8.18375 12.3751ZM16.1711 12.3751L16.3609 12.5577V14.192V15.8262L16.1711 16.0088L15.9813 16.1915H14.9972H14.0131L13.8233 16.0088L13.6335 15.8262V14.192V12.5577L13.8233 12.3751L14.0131 12.1925H14.9972H15.9813L16.1711 12.3751ZM24.1584 12.3751L24.3482 12.5577V14.192V15.8262L24.1584 16.0088L23.9686 16.1915H22.9845H22.0005L21.8106 16.0088L21.6208 15.8262V14.192V12.5577L21.8106 12.3751L22.0005 12.1925H22.9845H23.9686L24.1584 12.3751ZM27.3912 15.811L27.2379 15.9305L27.2207 21.4033L27.2034 26.8763H22.9864H18.7695L18.7503 23.8927C18.7316 20.9868 18.7275 20.9014 18.5908 20.6168C18.4016 20.223 17.963 19.7779 17.5648 19.5757L17.2375 19.4094H14.9972H12.7568L12.4296 19.5757C12.0314 19.7779 11.5928 20.223 11.4036 20.6168C11.2669 20.9014 11.2628 20.9868 11.2441 23.8927L11.2249 26.8763H7.00942H2.79387L2.77517 24.7583C2.7577 22.7774 2.74848 22.6318 2.63276 22.5089C2.4471 22.3116 2.05884 22.3288 1.88455 22.5421C1.75428 22.7013 1.74993 22.7763 1.74993 24.8467V26.9866L1.40855 27.1473C0.766711 27.4494 0.248314 28.0739 0.0849312 28.7416C-0.0175403 29.1608 -0.0308525 30.5588 0.0645407 30.8893C0.170649 31.2569 0.509233 31.6367 0.901586 31.8282L1.25374 32L14.9926 31.9994L28.7315 31.9987L29.0608 31.8512C29.4455 31.6788 29.7589 31.3402 29.8985 30.9458C30.0345 30.5617 30.0336 29.2218 29.897 28.7171C29.7108 28.0292 29.2259 27.4486 28.5858 27.1473L28.2445 26.9866V21.4924V15.9983L28.085 15.845C27.8916 15.6588 27.6046 15.6447 27.3912 15.811ZM5.72508 19.4567C5.43572 19.5459 4.95798 19.9615 4.78303 20.2762C4.64712 20.5207 4.63861 20.621 4.61959 22.2008C4.60738 23.2154 4.62576 23.9613 4.6666 24.1072C4.76972 24.4758 5.0422 24.832 5.40176 25.0683L5.7284 25.2829L6.83792 25.3029C8.20771 25.3274 8.40642 25.283 8.86865 24.8492C9.37211 24.3768 9.41256 24.1906 9.41256 22.3462C9.41256 20.6164 9.36315 20.346 8.9706 19.927C8.83865 19.7862 8.58461 19.6053 8.40603 19.5252C8.10498 19.39 8.00322 19.3798 7.00987 19.3852C6.42057 19.3883 5.84243 19.4205 5.72508 19.4567ZM21.5884 19.5252C21.4098 19.6053 21.1557 19.7862 21.0238 19.927C20.6312 20.346 20.5818 20.6164 20.5818 22.3462C20.5818 24.1893 20.6225 24.3773 21.1237 24.8468C21.5727 25.2676 21.7671 25.3145 23.057 25.3128C23.9548 25.3117 24.1615 25.2933 24.3807 25.1955C24.702 25.052 25.0283 24.7449 25.2138 24.4115C25.3491 24.1683 25.3547 24.086 25.3547 22.3462C25.3547 20.5967 25.3498 20.5252 25.2114 20.2762C25.0252 19.9413 24.5536 19.5447 24.2309 19.4516C24.0814 19.4086 23.5492 19.3784 22.9445 19.3788C22.0007 19.3793 21.8854 19.3918 21.5884 19.5252ZM8.18427 20.5507L8.37356 20.7548V22.3462V23.9375L8.18421 24.1416L7.99491 24.3457L7.2017 24.3667C6.24049 24.3922 6.00341 24.3547 5.80145 24.145L5.64618 23.9838L5.64826 22.3527C5.65047 20.5919 5.65021 20.5934 6.00951 20.4084C6.15965 20.331 6.38167 20.3149 7.09657 20.3289L7.99491 20.3467L8.18427 20.5507ZM16.9519 20.3864C17.2096 20.4693 17.5029 20.7132 17.6329 20.9528C17.7079 21.0909 17.7246 21.6435 17.7246 23.9989V26.8763H14.9972H12.2698V23.9989C12.2698 21.6435 12.2864 21.0909 12.3614 20.9528C12.4864 20.7226 12.7814 20.4695 13.0166 20.3907C13.2926 20.298 16.6658 20.2944 16.9519 20.3864ZM23.9884 20.4121C24.105 20.4654 24.2336 20.5792 24.2742 20.665C24.3233 20.7687 24.3482 21.353 24.3482 22.4025C24.3482 23.9834 24.3481 23.9838 24.1929 24.145C23.991 24.3547 23.7539 24.3922 22.7927 24.3667L21.9995 24.3457L21.8102 24.1416L21.6208 23.9375V22.3536C21.6208 20.8302 21.6262 20.7632 21.7597 20.5998C21.9617 20.3527 22.0868 20.3238 22.9747 20.3194C23.571 20.3164 23.8309 20.3402 23.9884 20.4121ZM28.1873 28.0506C28.4399 28.1776 28.588 28.3082 28.7305 28.5297C28.9216 28.8269 28.9268 28.8559 28.9471 29.7524C28.9675 30.6537 28.9649 30.674 28.8066 30.8511L28.6453 31.0315H14.9972H1.34907L1.18777 30.8511C1.02951 30.674 1.02692 30.6537 1.04731 29.7524C1.06757 28.8559 1.07276 28.8269 1.26387 28.5297C1.40635 28.3082 1.55447 28.1776 1.80708 28.0506L2.15436 27.876H14.9972H27.84L28.1873 28.0506Z" fill="#FF6060"/>
</svg>
