<svg width="85" height="86" viewBox="0 0 85 86" fill="none" xmlns="http://www.w3.org/2000/svg">
<path fill-rule="evenodd" clip-rule="evenodd" d="M55.8197 0.183781C54.1397 0.741209 53.638 1.1726 47.3151 7.49606C33.287 21.5248 32.989 21.8516 32.989 22.4395C32.989 23.7052 34.3692 24.602 35.4405 24.0323C35.7051 23.8914 46.5233 13.1572 49.7031 9.95617C52.9353 6.70218 55.7802 3.97755 56.1549 3.77673C57.0708 3.28602 58.5891 3.28568 59.5064 3.77589C59.9004 3.98663 64.5048 8.48571 70.6777 14.6917C81.8805 25.955 81.5411 25.5647 81.5411 27.1818C81.5411 28.8274 82.3752 27.9142 64.2266 46.1414C53.8461 56.5671 47.0133 63.3054 46.6029 63.5214C45.6913 64.0013 44.1658 64.0022 43.2513 63.5232C42.8827 63.3301 42.2063 62.7875 41.7485 62.3173L40.916 61.4626L45.0362 57.3041C47.3042 55.0153 49.3569 52.7953 49.6026 52.3659C49.8479 51.9371 50.1608 51.0472 50.2977 50.3886C51.2855 45.6368 46.8507 41.3409 42.1927 42.5376C41.6109 42.687 40.8193 42.996 40.4335 43.2244C40.0477 43.4526 38.0738 45.3057 36.047 47.3423L32.3616 51.0452H31.4372H30.513L26.1213 46.6338C23.2246 43.724 21.6421 42.0099 21.4722 41.5977C21.1223 40.7482 21.1515 39.3488 21.5364 38.5253C21.7427 38.0842 23.8188 35.8891 27.5766 32.1394C30.7257 28.9968 33.4106 26.2214 33.5429 25.9719C33.9347 25.2321 33.8405 24.6849 33.2134 24.0561C32.7645 23.6059 32.5081 23.4847 32.0038 23.4847C31.3861 23.4847 31.1545 23.6944 25.3139 29.5433C21.5852 33.2776 19.0592 35.941 18.73 36.4857C18.4191 37.0001 18.0781 37.9143 17.9137 38.6736C17.6722 39.7899 17.6608 40.1514 17.8353 41.1841C18.2056 43.3785 18.546 43.86 22.6962 48.0592C24.7727 50.1604 26.4387 51.9004 26.3987 51.9261C26.3586 51.9518 25.7981 52.2256 25.1529 52.5346C21.8675 54.1085 19.0368 57.162 17.7999 60.4665C17.2268 61.9977 16.8578 63.9151 16.8578 65.3622V66.5855L8.57153 74.9064C3.81767 79.6801 0.207199 83.4365 0.10196 83.7185C-0.304082 84.8063 0.555427 86 1.7449 86C2.33243 86 2.74048 85.6165 11.2652 77.0512L20.1716 68.1025L20.2671 66.0018C20.3771 63.5829 20.6522 62.3608 21.459 60.7082C22.7317 58.1012 25.2224 55.9795 28.0855 55.0635C28.8213 54.8281 29.8944 54.6763 31.392 54.5956L33.6092 54.4761L37.76 50.3483C42.2734 45.86 42.451 45.7344 44.0973 45.8712C45.6521 46.0006 46.7804 47.0923 46.9637 48.6451C47.1566 50.2789 47.1562 50.2796 40.7293 56.759C37.055 60.4633 34.771 62.891 34.7042 63.1631C34.5291 63.8771 35.014 64.7965 35.7227 65.0935C36.4808 65.4113 37.1349 65.2222 37.9212 64.4579L38.4623 63.9321L39.6665 65.0715C40.4184 65.7827 41.2866 66.4083 41.9774 66.7365C43.0082 67.2262 43.2096 67.2622 44.9271 67.2622C46.6647 67.2622 46.8373 67.2304 47.9382 66.7078C48.978 66.2139 49.5719 65.6901 53.3669 61.9183C55.7104 59.589 57.5893 57.7967 57.5421 57.9353C56.5958 60.7117 53.3503 69.3077 52.8524 70.356C52.3073 71.5042 51.9093 72.0424 50.7327 73.2244C48.5426 75.424 48.0023 75.6551 39.3133 78.1083L32.0236 80.1666L30.3059 81.8737C28.6608 83.5088 28.5882 83.6111 28.5882 84.2991C28.5882 85.3068 29.2743 86 30.2716 86C30.9256 86 31.0733 85.9042 32.3633 84.6415C33.9543 83.0841 32.7433 83.5466 42.2459 80.8667C47.728 79.3206 49.509 78.6297 51.282 77.361C52.7468 76.3128 54.6842 74.1841 55.5306 72.693C55.9869 71.8892 57.5587 67.8672 59.859 61.6162L63.471 51.8014L73.6519 41.5503C83.057 32.08 83.8673 31.2194 84.2876 30.2525C84.9498 28.7286 85.1399 27.4312 84.9014 26.0586C84.4828 23.6474 84.8419 24.067 73.0164 12.175C62.777 1.87791 62.1203 1.25175 60.9496 0.668274C59.8178 0.10446 59.5733 0.0476586 58.1008 0.00631784C57.0948 -0.0217468 56.2383 0.0448017 55.8197 0.183781ZM56.6968 12.2301C55.6771 12.487 54.7375 13.0421 53.9058 13.879C51.5833 16.2159 51.5862 19.9559 53.9123 22.2885C56.892 25.2768 61.7716 24.3691 63.5853 20.4892C63.9586 19.6902 64.0309 19.3037 64.0302 18.107C64.0295 16.896 63.9575 16.5223 63.557 15.6518C62.6227 13.6209 60.5985 12.2272 58.4329 12.1239C57.8251 12.0948 57.044 12.1427 56.6968 12.2301ZM59.2215 15.8224C60.1157 16.289 60.4859 16.8641 60.5581 17.8993C60.6141 18.7029 60.5597 18.9611 60.2302 19.4514C59.1585 21.0463 56.8612 20.9562 55.9233 19.2827C54.9927 17.6224 56.154 15.5862 58.0314 15.5862C58.4371 15.5862 58.9725 15.6925 59.2215 15.8224ZM63.0691 34.3677L53.8926 43.5702V44.2957C53.8926 45.6497 55.1673 46.4039 56.3727 45.763C57.0916 45.3808 74.2967 27.9991 74.5027 27.4467C74.9087 26.3587 74.0492 25.1652 72.8596 25.1652C72.272 25.1652 71.8528 25.5593 63.0691 34.3677ZM33.1594 34.6228C29.9657 37.8256 29.9289 37.8709 29.9289 38.585C29.9289 39.6022 30.6124 40.2899 31.6236 40.2899C32.3276 40.2899 32.3877 40.241 35.4893 37.1463C38.7447 33.898 39.1411 33.3477 38.8258 32.5158C38.5385 31.7581 37.9839 31.3831 37.1498 31.3831H36.3902L33.1594 34.6228Z" fill="#FF6060"/>
</svg>
