<svg width="84" height="84" viewBox="0 0 84 84" fill="none" xmlns="http://www.w3.org/2000/svg">
<path fill-rule="evenodd" clip-rule="evenodd" d="M22.3249 8.37537V16.7507L14.5778 16.7517C10.317 16.7522 6.40137 16.8232 5.87638 16.9092C3.24467 17.341 1.07582 19.2926 0.269303 21.955C-0.0897676 23.1405 -0.0897676 63.7334 0.269303 64.9189C1.06008 67.5296 3.16957 69.466 5.75849 69.9576C6.29217 70.0591 11.1296 70.1232 18.2492 70.1232H29.8688L28.4734 72.915L27.0779 75.7067H13.9546H0.831354L0.406537 76.1322C0.00434495 76.5351 -0.0136906 76.6249 0.0687808 77.8155C0.272254 80.755 1.98038 82.7046 5.1461 83.6115L6.50286 84H42H77.4971L78.8539 83.6115C82.0196 82.7046 83.7278 80.755 83.9312 77.8155C84.0137 76.6249 83.9957 76.5351 83.5935 76.1322L83.1686 75.7067H70.0454H56.9221L55.5266 72.915L54.1312 70.1232H65.7508C72.8704 70.1232 77.7078 70.0591 78.2415 69.9576C80.8304 69.466 82.9399 67.5296 83.7307 64.9189C84.0898 63.7334 84.0898 23.1405 83.7307 21.955C82.9242 19.2926 80.7553 17.341 78.1236 16.9092C77.5986 16.8232 73.6831 16.7522 69.4222 16.7517L61.6751 16.7507V8.37537V0H60.1972H58.7192L58.7625 16.4177L58.8058 32.8355L59.1786 33.2095C59.5267 33.5586 59.7223 33.589 62.1196 33.6657L64.6875 33.7478L53.4784 40.4809C47.3134 44.1842 42.1482 47.2141 42 47.2141C41.8518 47.2141 36.6866 44.1842 30.5216 40.4809L19.3125 33.7478L21.8804 33.6657C24.2777 33.589 24.4733 33.5586 24.8214 33.2095L25.1942 32.8355L25.2375 16.4177L25.2808 0H23.8028H22.3249V8.37537ZM39.2412 3.05225C35.0119 3.97961 32.545 7.37821 32.2182 12.7273C32.0465 15.5394 32.9198 18.041 34.7874 20.0879C35.2373 20.5809 35.6056 21.0214 35.6056 21.0663C35.6056 21.1113 35.329 21.2 34.9907 21.2634C32.5391 21.7232 30.1262 24.2271 29.5596 26.8995C29.4581 27.3783 29.3752 29.0964 29.3752 30.7177V33.6657H30.8508H32.3264L32.3281 30.5044C32.3295 27.5219 32.3515 27.2966 32.7178 26.522C33.1974 25.5076 33.9596 24.7666 35.0317 24.2723C35.841 23.8992 35.9301 23.8944 42 23.8944C48.0699 23.8944 48.159 23.8992 48.9683 24.2723C50.0404 24.7666 50.8026 25.5076 51.2822 26.522C51.6485 27.2966 51.6705 27.5219 51.6719 30.5044L51.6736 33.6657H53.1492H54.6249V30.7177C54.6249 27.4305 54.4802 26.4767 53.7664 25.0537C52.8587 23.2446 50.6762 21.5127 48.9506 21.2322C48.6446 21.1825 48.3944 21.1064 48.3944 21.0631C48.3944 21.0199 48.7627 20.5809 49.2126 20.0879C51.0802 18.041 51.9535 15.5394 51.7818 12.7273C51.4508 7.30759 48.9779 3.95564 44.6355 3.04075C43.1997 2.73809 40.6487 2.74367 39.2412 3.05225ZM43.4935 5.81825C46.1139 6.07805 48.0763 7.98435 48.6107 10.7889L48.7107 11.3141L46.3861 9.91085C43.5683 8.20999 43.1985 8.11524 42.4553 8.90367C42.1597 9.21717 41.7705 9.71937 41.5901 10.0197C40.9789 11.0377 38.7067 11.9671 35.8083 12.3849L35.1091 12.4855L35.2111 11.7853C35.3579 10.7778 35.7646 9.37072 36.104 8.69724C36.498 7.91538 37.5829 6.81821 38.3452 6.43097C39.2368 5.97804 41.3529 5.57372 42.2459 5.68589C42.4263 5.70855 42.9877 5.768 43.4935 5.81825ZM46.408 13.3068L48.8678 14.7896L48.6384 15.5527C48.3318 16.573 47.3926 17.9072 46.2756 18.9088C45.3417 19.7463 43.4876 20.7405 42.5353 20.9144C41.9003 21.0304 40.2547 20.5538 39.1096 19.9222C37.6498 19.1172 35.6889 16.8338 35.4121 15.6169C35.3728 15.4437 35.7277 15.3314 36.8353 15.1661C39.5354 14.7635 42.0249 13.7167 43.2354 12.4752C43.5845 12.117 43.8877 11.824 43.9093 11.824C43.9308 11.824 45.0552 12.4913 46.408 13.3068ZM22.3249 21.0159V22.3253L14.3586 22.3708L6.39235 22.4164L5.99672 22.8772L5.60109 23.338V42.0411V60.7441L5.99672 61.2049L6.39252 61.6657H42H77.6075L78.0033 61.2049L78.3989 60.7441V42.0411V23.338L78.0033 22.8772L77.6077 22.4164L69.6414 22.3708L61.6751 22.3253V21.0159V19.7067H69.6799C78.6209 19.7067 78.6398 19.7089 79.787 20.82C80.1339 21.156 80.5724 21.7636 80.7611 22.1701C81.1036 22.9076 81.1042 22.9498 81.1042 43.437C81.1042 63.9077 81.1033 63.9669 80.7619 64.7056C80.3361 65.6269 79.5119 66.4671 78.6485 66.8599C78.0162 67.1476 76.5042 67.1599 42 67.1599C7.4958 67.1599 5.98377 67.1476 5.35154 66.8599C4.48813 66.4671 3.66391 65.6269 3.23811 64.7056C2.89675 63.9669 2.89576 63.9077 2.89576 43.437C2.89576 22.9547 2.89658 22.9074 3.23877 22.1668C3.66916 21.2353 4.56962 20.3646 5.47648 20.003C6.0987 19.755 7.0554 19.7237 14.2499 19.7156L22.3249 19.7067V21.0159ZM22.3249 27.9901V30.6901L17.911 30.7409C13.497 30.7918 13.4969 30.7918 13.0742 31.1899C12.5639 31.6704 12.4969 32.6316 12.9383 33.1362C13.096 33.3166 19.5824 37.2784 27.3524 41.9402C38.0838 48.3789 41.6047 50.4164 42 50.4164C42.3953 50.4164 45.9162 48.3789 56.6476 41.9402C64.4176 37.2784 70.9039 33.3166 71.0617 33.1362C71.4757 32.6629 71.4262 31.8037 70.9532 31.2526L70.5577 30.7918L66.1164 30.7409L61.6751 30.6901V27.9901V25.2903H68.6433H75.6116V42.0411V58.7918H42H8.38839V42.0411V25.2903H15.3567H22.3249V27.9901ZM67.0857 49.0205V50.4164H65.6857H64.2856L64.333 51.8534L64.3804 53.2903L65.7265 53.338L67.0726 53.3856L67.1202 54.7338L67.1677 56.0821L68.6024 56.1296L70.037 56.177V54.7813V53.3857L71.3897 53.338L72.7423 53.2903L72.7897 51.8534L72.8371 50.4164H71.437H70.037V49.0205V47.6246H68.5614H67.0857V49.0205ZM52.2907 72.8342C53.0335 74.3251 53.6411 75.5814 53.6411 75.6259C53.6411 75.6705 48.4026 75.7067 42 75.7067C35.5974 75.7067 30.3589 75.6705 30.3589 75.6259C30.3589 75.5814 30.9665 74.3251 31.7093 72.8342L33.0596 70.1232H42H50.9404L52.2907 72.8342ZM80.8583 78.7729C80.8583 78.924 80.5401 79.353 80.1511 79.7263C79.2784 80.5636 78.1648 80.94 75.9805 81.1355C73.8936 81.3223 10.1064 81.3223 8.01948 81.1355C5.83522 80.94 4.72161 80.5636 3.84886 79.7263C3.45995 79.353 3.1417 78.924 3.1417 78.7729C3.1417 78.5173 5.79735 78.4985 42 78.4985C78.2027 78.4985 80.8583 78.5173 80.8583 78.7729Z" fill="#FF6060"/>
</svg>
