<svg width="86" height="86" viewBox="0 0 86 86" fill="none" xmlns="http://www.w3.org/2000/svg">
<path fill-rule="evenodd" clip-rule="evenodd" d="M11.5429 0.241877C9.77375 0.872773 8.55953 2.32605 8.21511 4.22478L8.01248 5.34229L5.89638 5.40561C4.20668 5.456 3.6262 5.53898 3.01564 5.81748C1.88862 6.3313 1.08821 7.11471 0.511932 8.26749L0 9.2916V43V76.7084L0.511932 77.7325C1.08821 78.8853 1.88862 79.6687 3.01564 80.1825C3.6262 80.461 4.20668 80.544 5.89638 80.5944L8.01248 80.6577L8.21511 81.7752C8.5681 83.7208 9.98125 85.3409 11.7549 85.8335C12.1333 85.9385 23.2023 85.9988 42.255 85.9993L72.1611 86L73.1707 85.5226C74.2955 84.9905 75.1401 84.1337 75.6715 82.9854C76.0128 82.2482 76.027 81.943 76.0744 74.4104C76.1013 70.1146 76.0816 66.4318 76.0304 66.2266C75.7717 65.1892 74.4686 64.8351 73.7444 65.6052L73.3372 66.0386L73.2532 73.9618C73.1616 82.5919 73.1972 82.2964 72.1749 82.9154C71.6745 83.2183 70.6549 83.2288 42.0796 83.2288C13.8543 83.2288 12.4809 83.2151 12.0394 82.9258C11.785 82.759 11.4295 82.3811 11.2494 82.086C10.9282 81.5592 10.9219 80.9937 10.9214 52.0994L10.9208 22.6498L10.4297 22.1588C9.82903 21.5583 9.25056 21.5309 8.62002 22.0731L8.14857 22.4786L8.10506 50.1241L8.06154 77.7698H6.2823C4.24381 77.7698 3.61091 77.5605 3.10083 76.7173C2.77757 76.183 2.7722 75.6285 2.7722 43C2.7722 10.3715 2.77757 9.81701 3.10083 9.2827C3.61108 8.43932 4.24364 8.2302 6.28381 8.2302H8.06457V12.9083C8.06457 17.7314 8.15277 18.5001 8.74317 18.8158C9.09213 19.0025 9.75393 19.0307 10.1572 18.876C10.8774 18.5997 10.9208 18.1616 10.9214 11.1361C10.9219 4.80596 10.9394 4.42232 11.2494 3.91404C11.4295 3.61892 11.785 3.24098 12.0394 3.07419C12.4809 2.78494 13.8543 2.77117 42.0796 2.77117C70.7616 2.77117 71.6728 2.78074 72.1802 3.08796C73.3357 3.78722 73.2532 2.05763 73.2532 25.5704V46.8062L67.6841 54.2313C64.621 58.315 62.055 61.6348 61.9816 61.6084C61.9083 61.5822 60.9083 60.3135 59.7596 58.7892C58.6108 57.2649 57.4533 55.8139 57.1874 55.5648C55.3315 53.826 51.9069 53.9723 50.2481 55.8611C49.2471 57.0008 48.9795 57.7251 48.9795 59.2931C48.9795 60.4645 49.0497 60.853 49.3701 61.4569C49.9466 62.5425 58.1541 73.4179 58.8196 73.9777C59.7296 74.7432 60.7645 75.1092 62.0226 75.1107C63.3222 75.1122 64.2859 74.7494 65.2687 73.8887C65.9625 73.2813 84.8021 48.2859 85.4881 47.0629C86.0469 46.0668 86.1608 44.5174 85.7674 43.2667C85.0079 40.8532 82.3162 39.3498 79.8577 39.9663C78.7497 40.2441 77.8446 40.8575 76.9494 41.9378L76.1934 42.85L76.1094 23.3144C76.0259 3.89439 76.0233 3.77446 75.6715 3.01456C75.1401 1.86632 74.2955 1.0095 73.1707 0.477371L72.1611 0L42.171 0.00722271C17.3844 0.0131017 12.0701 0.0539184 11.5429 0.241877ZM21.2459 16.7051C20.7002 17.2505 20.6895 18.1147 21.2222 18.6151L21.6112 18.9803H42.1105H62.6098L62.9752 18.5916C63.508 18.0245 63.471 17.0916 62.8978 16.641C62.4554 16.2931 62.4387 16.2928 42.0567 16.2928H21.6582L21.2459 16.7051ZM31.284 23.8561C30.4726 24.6118 30.6622 25.7087 31.6773 26.1328C32.1837 26.3443 33.7709 26.374 42.4161 26.334L52.5608 26.287L52.9943 25.8798C53.5723 25.3369 53.5813 24.4936 53.0153 23.9278L52.603 23.5155H42.1263C31.8342 23.5155 31.6432 23.5215 31.284 23.8561ZM21.1987 34.8222C20.6979 35.3554 20.7185 36.1816 21.2459 36.7087L21.6582 37.1211H36.6713C51.5203 37.1211 51.6883 37.1174 52.0499 36.7804C52.251 36.5931 52.4605 36.2612 52.5153 36.0427C52.6312 35.5814 52.2219 34.6905 51.8241 34.5378C51.6746 34.4806 44.8049 34.4335 36.5582 34.4335H21.5642L21.1987 34.8222ZM59.5147 34.5459C59.164 34.687 58.7689 35.6139 58.8766 36.0427C59.0856 36.8751 59.5883 37.1211 61.0814 37.1211C62.2168 37.1211 62.5318 37.0606 62.8978 36.7729C63.4892 36.3079 63.5159 35.3286 62.9517 34.7987C62.613 34.4806 62.3799 34.4352 61.1456 34.4468C60.366 34.454 59.6321 34.4987 59.5147 34.5459ZM21.2459 42.0686C20.9859 42.3285 20.8335 42.6728 20.8335 43C20.8335 43.3272 20.9859 43.6715 21.2459 43.9314L21.6582 44.3438L36.661 44.3384C48.1895 44.3344 51.7253 44.2856 51.9303 44.1284C52.6737 43.5578 52.726 42.6264 52.0499 41.9969C51.6883 41.6599 51.5203 41.6562 36.6713 41.6562H21.6582L21.2459 42.0686ZM59.4562 41.8254C58.968 42.1106 58.7341 42.9293 58.9748 43.5103C59.2704 44.2238 59.5906 44.3438 61.2 44.3438C62.4564 44.3438 62.6496 44.3014 62.9752 43.9551C63.4757 43.4223 63.4646 42.5033 62.9517 42.0214C62.6147 41.705 62.3736 41.6569 61.1456 41.6613C60.366 41.6641 59.6059 41.7379 59.4562 41.8254ZM82.1633 42.9189C82.7811 43.2384 83.1845 44.0006 83.1966 44.8715C83.2035 45.38 83.0583 45.7537 82.5975 46.413C82.263 46.8915 77.8122 52.8382 72.7068 59.6275C62.6074 73.0582 63.0162 72.592 61.5774 72.322C60.7617 72.169 60.4959 71.8576 55.7902 65.5399C51.8261 60.2181 51.7476 60.0972 51.7476 59.3057C51.7476 57.6517 53.4619 56.5973 54.9231 57.3527C55.1963 57.494 56.5807 59.1814 58.2255 61.3779C61.1943 65.3427 61.5851 65.7134 62.4742 65.4089C62.7969 65.2984 65.2245 62.1891 71.2486 54.17C75.8293 48.0727 79.7608 42.9906 79.9852 42.8765C80.5452 42.592 81.5696 42.612 82.1633 42.9189ZM21.6888 61.6578C21.1315 61.8832 20.8442 62.3075 20.8442 62.9045C20.8442 63.4725 21.082 63.85 21.6204 64.1369C21.8879 64.2793 24.7725 64.3322 32.2601 64.3322H42.5329L43.024 63.8412C43.6246 63.2407 43.652 62.6624 43.1097 62.032L42.7042 61.5607L32.3989 61.5274C26.0116 61.5068 21.9397 61.5563 21.6888 61.6578ZM21.8415 68.818C20.7978 69.1995 20.5013 70.4233 21.278 71.1431L21.7226 71.5549H25.8219H29.9214L30.3337 71.1425C31.0708 70.4057 30.834 69.2159 29.8846 68.885C29.3419 68.6959 22.3353 68.6376 21.8415 68.818Z" fill="#FFDC60"/>
</svg>
