<svg width="31" height="31" viewBox="0 0 31 31" fill="none" xmlns="http://www.w3.org/2000/svg">
<path fill-rule="evenodd" clip-rule="evenodd" d="M5.11651 0.080237C4.6988 0.262205 4.51347 0.613182 4.39022 1.45587C4.35316 1.70923 4.32972 1.74108 4.13682 1.8003C3.93503 1.86219 3.90165 1.84984 3.47989 1.55663C2.73035 1.03561 2.23409 1.08569 1.61773 1.74453C1.29147 2.09327 1.21128 2.26331 1.21128 2.60665C1.21128 2.87443 1.29801 3.06942 1.64534 3.58238C1.87343 3.91931 1.87773 3.93517 1.79415 4.13524C1.71336 4.32848 1.68241 4.34555 1.2931 4.4115C0.690006 4.51365 0.528179 4.57736 0.317295 4.79596C0.0588076 5.06392 0 5.25273 0 5.81498C0 6.3828 0.0845473 6.61964 0.379857 6.87887C0.590378 7.06362 0.821732 7.13944 1.46026 7.23282C1.71305 7.26975 1.74558 7.29361 1.80408 7.48412C1.86531 7.68365 1.85168 7.71956 1.53996 8.17723C1.25658 8.59337 1.21134 8.69916 1.21164 8.94519C1.21207 9.27867 1.29371 9.4544 1.63777 9.86236C1.96833 10.2543 2.21937 10.3712 2.66167 10.3392C2.95661 10.3179 3.0689 10.2704 3.44918 10.0059C3.87482 9.70988 3.90026 9.70062 4.08123 9.77625C4.25299 9.84807 4.2786 9.89615 4.36878 10.3159C4.50124 10.9318 4.57979 11.1051 4.82344 11.319C5.08889 11.5521 5.20766 11.5781 5.89221 11.5526C6.40374 11.5336 6.4818 11.5148 6.68215 11.3619C6.97177 11.1409 7.08635 10.9115 7.20264 10.3205C7.29748 9.8385 7.29911 9.83571 7.51951 9.78127C7.72554 9.73035 7.76927 9.74676 8.14755 10.0167C8.82557 10.5004 9.31765 10.4808 9.87648 9.94786C10.2809 9.56225 10.417 9.31337 10.417 8.95997C10.417 8.67845 10.3892 8.6148 10.014 8.03723C9.75056 7.63181 9.75032 7.6309 9.84783 7.42641C9.94037 7.23239 9.97029 7.21756 10.4145 7.14543C10.9913 7.05176 11.3104 6.87996 11.4927 6.56483C11.6171 6.34974 11.6302 6.25824 11.615 5.71337C11.5992 5.14633 11.5855 5.08656 11.4229 4.87353C11.2137 4.59958 10.9008 4.45328 10.32 4.3579C9.90094 4.28911 9.8881 4.28173 9.82378 4.07209C9.76195 3.8708 9.77255 3.83677 9.98719 3.54616C10.3182 3.09806 10.417 2.88042 10.417 2.59969C10.417 2.28874 10.2921 2.03707 9.97132 1.70148C9.64015 1.3551 9.34163 1.20692 8.97492 1.20692C8.71849 1.20692 8.60948 1.25173 8.1636 1.54052C7.65341 1.87097 7.64657 1.87333 7.44035 1.78716C7.24061 1.70372 7.22904 1.68119 7.15273 1.22648C7.109 0.965915 7.0376 0.684637 6.99417 0.601374C6.90254 0.425885 6.62982 0.161865 6.43892 0.063766C6.25796 -0.029186 5.34144 -0.0178016 5.11651 0.080237ZM5.99584 0.989653C5.99584 1.14455 6.19103 1.96556 6.25893 2.09593C6.46939 2.5005 7.08151 2.84191 7.59642 2.84191C7.89942 2.84191 7.97222 2.8126 8.40986 2.51467L8.89043 2.18749L9.08981 2.39314L9.28919 2.59878L8.96856 3.05791C8.76628 3.3476 8.63649 3.60242 8.61693 3.74824C8.57798 4.03848 8.79377 4.7127 9.00659 4.96551C9.21603 5.2144 9.40171 5.29802 9.9325 5.3825C10.6281 5.49319 10.5987 5.47436 10.5987 5.80911C10.5987 6.1398 10.6227 6.1229 9.99306 6.23669C9.40468 6.34296 9.17678 6.51718 8.92084 7.05599C8.73872 7.43949 8.71038 7.55509 8.73272 7.82438C8.75477 8.09034 8.81097 8.21278 9.082 8.58531L9.40492 9.02924L9.19749 9.2367L8.99006 9.4441L8.60566 9.16446C7.97198 8.70339 7.75068 8.64423 7.27719 8.80912C6.50324 9.07859 6.33154 9.27291 6.19564 10.0328C6.14355 10.3243 6.08317 10.5827 6.06143 10.6072C6.03969 10.6316 5.90136 10.631 5.75407 10.6059L5.48619 10.5602L5.39104 10.0701C5.26374 9.41407 5.10518 9.1905 4.57961 8.92575C3.9455 8.60639 3.709 8.62655 3.08186 9.05352L2.58572 9.3913L2.40857 9.21418L2.23142 9.03705L2.56925 8.54099C2.86686 8.10396 2.90707 8.00931 2.90707 7.74547C2.90707 7.53662 2.85226 7.33285 2.72574 7.0718C2.4285 6.4582 2.29108 6.35568 1.60495 6.23578C0.936017 6.11891 0.969024 6.14131 0.969024 5.80505C0.969024 5.64076 0.975868 5.50597 0.984165 5.50554C0.992462 5.50512 1.25337 5.45232 1.56394 5.38825C2.30258 5.23583 2.4635 5.11236 2.72017 4.501C2.98132 3.87891 2.9531 3.68278 2.51129 3.04804L2.18133 2.57414L2.37344 2.37594C2.59105 2.15146 2.48894 2.12209 3.22122 2.61985C3.6763 2.92923 3.92455 2.95757 4.41917 2.75665C5.06273 2.49517 5.20523 2.30612 5.35531 1.51491C5.40782 1.23823 5.45076 1.00128 5.45076 0.98832C5.45076 0.975301 5.5734 0.964704 5.7233 0.964704C5.87319 0.964704 5.99584 0.975907 5.99584 0.989653ZM5.00743 3.44153C3.56546 3.91834 2.8688 5.56888 3.54584 6.90467C3.96179 7.72543 4.79915 8.23222 5.7365 8.23058C6.76379 8.22877 7.57032 7.73803 8.00904 6.84793C8.38733 6.08051 8.28407 5.00427 7.76727 4.32696C7.48571 3.958 7.06522 3.63288 6.67936 3.48585C6.24015 3.31848 5.44355 3.29734 5.00743 3.44153ZM12.392 4.00675C12.1564 4.21718 12.135 4.42203 12.3251 4.6479L12.4851 4.83811L20.7022 4.85434L28.9193 4.8705L29.1624 5.00064C29.4713 5.16607 29.7139 5.4086 29.8793 5.71749L30.0095 5.96049L30.0258 13.212L30.0421 20.4634H15.7479H1.45354V15.7738V11.0842L1.31727 10.9316C1.10693 10.6963 0.902525 10.6759 0.674804 10.8675L0.482513 11.0293L0.498684 18.0033L0.514794 24.9774L0.709386 25.3726C0.925721 25.8118 1.33604 26.2633 1.72741 26.4926C2.30918 26.8335 1.71063 26.8195 15.7233 26.8207C24.1444 26.8213 28.7421 26.8005 28.952 26.7607C29.8879 26.5832 30.6578 25.893 30.9137 25.0021C31.0005 24.7 31.0086 23.7106 30.9944 15.1922L30.9785 5.71827L30.7851 5.31007C30.5348 4.78179 30.0982 4.34525 29.5698 4.09497L29.1616 3.90162L20.8535 3.88564L12.5455 3.86965L12.392 4.00675ZM6.50609 4.56185C6.97806 4.83841 7.31528 5.51596 7.23237 6.02105C7.11082 6.76158 6.50258 7.27405 5.74958 7.27048C5.1477 7.26757 4.69147 6.98012 4.4434 6.44742C4.02732 5.55411 4.55829 4.50324 5.49637 4.36342C5.87822 4.30649 6.16711 4.36323 6.50609 4.56185ZM14.8884 6.23463C14.501 6.43924 14.366 6.71961 14.2302 7.60214L14.1639 8.03275L13.8739 8.16851L13.5838 8.30434L13.0873 7.93622C12.1866 7.26848 11.7184 7.29434 11.0375 8.04964C10.6468 8.48304 10.5381 8.70461 10.5381 9.06763C10.5381 9.38367 10.631 9.56188 11.0807 10.1085C11.3986 10.495 11.3975 10.491 11.2649 10.7908L11.1447 11.0624L10.6446 11.1357C9.94188 11.2386 9.80319 11.291 9.55379 11.5477C9.25491 11.8552 9.20573 12.0185 9.20573 12.7035C9.20573 13.7195 9.46924 14.0395 10.4122 14.1683C10.7078 14.2087 10.9784 14.2595 11.0134 14.2811C11.1171 14.3452 11.3221 14.8532 11.2715 14.9209C11.2459 14.9552 11.1017 15.1467 10.9509 15.3465C10.5786 15.8402 10.4776 16.0534 10.4776 16.3457C10.4776 16.6592 10.5986 16.8946 10.9758 17.3146C11.4776 17.8734 11.9522 18.0432 12.4327 17.8361C12.5399 17.7899 12.8262 17.602 13.069 17.4184L13.5105 17.0848L13.813 17.2125C14.1413 17.3512 14.1304 17.33 14.2318 18.0319C14.3079 18.5589 14.3952 18.746 14.6829 18.9985C14.972 19.2523 15.3077 19.3334 15.9154 19.2962C16.7775 19.2434 17.0683 18.9482 17.2265 17.9654C17.2787 17.6415 17.3213 17.3638 17.3213 17.3484C17.3213 17.3329 17.4449 17.2656 17.5959 17.1988L17.8704 17.0774L18.3738 17.4374C18.8853 17.8031 19.2292 17.9809 19.424 17.9803C19.7351 17.9793 20.0306 17.8269 20.3899 17.4819C20.8123 17.0763 21.0157 16.7218 21.0157 16.391C21.0157 16.0787 20.9418 15.9201 20.559 15.4116L20.2203 14.9616L20.3278 14.659L20.4353 14.3563L20.9527 14.2842C22.1183 14.1218 22.4424 13.7537 22.3983 12.6424C22.3587 11.6431 22.1135 11.3777 21.0757 11.2111L20.4596 11.1122L20.312 10.8209L20.1644 10.5297L20.5298 10.0498C20.9356 9.51671 21.0157 9.35085 21.0157 9.04293C21.0157 8.71393 20.8673 8.4372 20.468 8.02136C20.0229 7.55794 19.8588 7.48176 19.38 7.5164C19.0938 7.5371 18.9577 7.58403 18.744 7.73566C18.5944 7.84176 18.3533 8.01283 18.2081 8.11583L17.9441 8.30307L17.6781 8.16821C17.5318 8.09403 17.3948 8.00647 17.3737 7.97353C17.3526 7.94064 17.317 7.74675 17.2947 7.54268C17.2326 6.97431 17.1522 6.7359 16.9412 6.49568C16.6615 6.1771 16.4534 6.11146 15.7334 6.11455C15.2378 6.11667 15.0654 6.14119 14.8884 6.23463ZM16.2444 7.8291C16.3542 8.45887 16.5402 8.8695 16.7889 9.03076C16.8652 9.08023 17.1156 9.19559 17.3455 9.28708C17.9275 9.51889 18.1499 9.47795 18.7594 9.02712C19.0177 8.83601 19.2656 8.65743 19.3102 8.63018C19.3957 8.57811 19.865 8.98267 19.865 9.10851C19.865 9.14448 19.6878 9.41425 19.4713 9.708C19.1026 10.2082 19.0777 10.2626 19.0777 10.5655C19.0777 10.804 19.1314 11.0069 19.2822 11.3378C19.5666 11.9617 19.7538 12.0942 20.5155 12.2107C20.8406 12.2604 21.1407 12.311 21.1823 12.3231C21.2327 12.3379 21.258 12.4756 21.258 12.7359C21.258 13.1794 21.3338 13.1266 20.5009 13.2636C19.8043 13.3782 19.5642 13.5684 19.2857 14.2263C19.0225 14.8479 19.0482 15.07 19.4597 15.732C19.6493 16.037 19.8044 16.3192 19.8044 16.3589C19.8044 16.4458 19.3805 16.8907 19.2979 16.8907C19.266 16.8907 19.0397 16.7401 18.7952 16.5561C18.2945 16.1793 18.1325 16.1035 17.8279 16.1035C17.5045 16.1035 16.7498 16.4423 16.5394 16.6819C16.3746 16.8695 16.2324 17.2155 16.2315 17.4307C16.2313 17.4779 16.2011 17.6892 16.1644 17.9L16.0976 18.2834H15.7187H15.3398L15.2449 17.6679C15.1704 17.1852 15.1125 16.999 14.9766 16.805C14.5967 16.2626 13.4649 15.9189 13.1292 16.2439C12.9182 16.4483 12.2931 16.8907 12.2153 16.8907C12.1667 16.8907 12.0271 16.7802 11.9051 16.6452L11.6834 16.3999L11.8076 16.2365C12.4813 15.3506 12.5065 15.303 12.505 14.9226C12.5037 14.636 12.4608 14.4721 12.3017 14.1463C12.0691 13.6699 11.7653 13.4103 11.3687 13.3488C11.2283 13.327 10.9432 13.2811 10.735 13.2468L10.3564 13.1844V12.7764V12.3685L10.8864 12.2911C11.761 12.1633 11.9685 12.0178 12.2915 11.3056C12.5957 10.6347 12.5483 10.3779 11.9824 9.63037C11.8209 9.41716 11.69 9.21266 11.6915 9.17603C11.6929 9.13933 11.7987 8.99024 11.9265 8.84473L12.159 8.58004L12.7174 8.98098C13.2582 9.36932 13.2872 9.38185 13.6418 9.38185C13.936 9.38185 14.0946 9.34013 14.4495 9.16949C15.0516 8.87991 15.205 8.63896 15.2971 7.8377C15.3685 7.21731 15.3879 7.19291 15.7917 7.21398L16.1403 7.23215L16.2444 7.8291ZM14.9471 10.0399C14.4392 10.2079 14.1101 10.4219 13.7325 10.8297C12.7891 11.8486 12.7209 13.2559 13.5597 14.3936C13.8425 14.7773 14.4197 15.1749 14.9099 15.3238C15.2466 15.426 15.4429 15.4466 15.8949 15.4268C16.3976 15.4048 16.5093 15.3775 16.9142 15.1774C17.7589 14.76 18.3247 14.008 18.4813 13.0944C18.6829 11.9191 18.0347 10.7153 16.9136 10.183C16.5116 9.99207 16.3972 9.96603 15.8771 9.94701C15.423 9.93042 15.2153 9.95119 14.9471 10.0399ZM16.5167 11.1135C17.5558 11.6149 17.8292 12.9662 17.0668 13.8322C16.693 14.2568 16.3026 14.4352 15.7466 14.4352C15.2062 14.4352 14.8133 14.2631 14.4592 13.8712C14.1406 13.5187 14.0363 13.2792 14.0039 12.827C13.905 11.4457 15.2727 10.5131 16.5167 11.1135ZM30.0908 23.1127L30.0694 24.672L29.8895 24.9972C29.692 25.3545 29.4346 25.5815 29.086 25.7059C28.8989 25.7726 26.5418 25.7874 15.7434 25.7896L2.62805 25.7923L2.31324 25.6354C2.14009 25.5491 1.91594 25.3789 1.8151 25.257C1.49738 24.8729 1.45354 24.5987 1.45354 22.9957V21.5534H15.7829H30.1122L30.0908 23.1127ZM15.2145 22.3251C15.0717 22.3836 14.8483 22.5358 14.718 22.6633C14.0711 23.2965 14.1818 24.372 14.9494 24.9114C15.1683 25.0651 15.2782 25.0974 15.6472 25.1161C16.3305 25.1505 16.7874 24.8897 17.0568 24.3112C17.394 23.5871 17.1017 22.7271 16.394 22.3612C16.1115 22.2151 15.5264 22.1972 15.2145 22.3251ZM15.9559 23.226C16.1038 23.2827 16.2395 23.5882 16.1952 23.7646C16.0675 24.2734 15.2985 24.1688 15.2985 23.6426C15.2985 23.2961 15.6153 23.0953 15.9559 23.226ZM11.4046 27.9366L11.2346 28.0826L11.2153 29.0569L11.196 30.0311H10.2587C9.34424 30.0311 9.31771 30.0348 9.17272 30.1798C8.97601 30.3764 8.97213 30.688 9.16418 30.8684L9.30439 31H15.7382H22.1719L22.3206 30.8513C22.5173 30.6547 22.5212 30.3432 22.3291 30.1628C22.1971 30.0388 22.1317 30.0311 21.2087 30.0311H20.2284V29.0879V28.1446L20.0513 27.9676C19.8348 27.7512 19.6264 27.7412 19.399 27.9366L19.2291 28.0826L19.2098 29.0569L19.1904 30.0311H15.7122H12.2339V29.0879V28.1446L12.0569 27.9676C11.8404 27.7512 11.6319 27.7412 11.4046 27.9366Z" fill="#FFDC60"/>
</svg>
