<svg width="84" height="84" viewBox="0 0 84 84" fill="none" xmlns="http://www.w3.org/2000/svg">
<path fill-rule="evenodd" clip-rule="evenodd" d="M32.2473 2.45141C27.2893 3.79138 22.9784 4.98433 22.6677 5.1028C20.7792 5.82185 20.4384 8.77666 22.1068 9.96485C22.3586 10.1442 23.7446 10.6138 25.1865 11.0083L27.8086 11.7259L27.8522 16.3572L27.8957 20.9887L27.4421 20.9903C26.7512 20.9928 25.4174 21.6951 24.7557 22.4048C24.4302 22.7542 22.8244 24.6522 21.1874 26.6228L18.2109 30.2056V31.1764V32.147H13.1542C5.81027 32.147 6.20648 31.9226 3.28716 37.7346L1.3125 41.6658V58.1276V74.5895L0.886758 74.9874C0.108938 75.7142 0 76.1234 0 78.32C0 79.4468 0.07875 80.5766 0.175055 80.8306C0.423773 81.4874 0.963375 82.0266 1.72266 82.3771C2.33641 82.6605 2.99414 82.6802 11.896 82.6837C21.1959 82.6871 21.4179 82.6946 21.6157 83.0117C21.7271 83.19 22.111 83.4854 22.469 83.668C23.1112 83.9956 23.3705 84 42 84C60.6295 84 60.8888 83.9956 61.531 83.668C61.889 83.4854 62.2729 83.19 62.3843 83.0117C62.5821 82.6946 62.8041 82.6871 72.104 82.6837C81.0059 82.6802 81.6636 82.6605 82.2773 82.3771C83.0366 82.0266 83.5762 81.4874 83.825 80.8306C83.9212 80.5766 84 79.4468 84 78.32C84 76.1234 83.8911 75.7142 83.1132 74.9874L82.6875 74.5895V58.2077V41.8259L80.6457 37.7443C77.7087 31.8726 78.1891 32.147 70.8458 32.147H65.7891V31.1222V30.0974L61.5635 25.8796C58.7775 23.0988 57.1277 21.574 56.721 21.404L56.1043 21.1462L56.1479 16.4327L56.1914 11.7192L57.1758 11.4443C58.8353 10.9809 58.7344 10.8802 58.7344 13.0004C58.7344 15.4677 58.9969 16.3441 60.0515 17.3989C61.0088 18.3563 61.7497 18.4801 62.4332 17.7963C63.0876 17.1419 63.0256 16.3977 62.2447 15.5331L61.6875 14.9163V12.495C61.6875 10.2609 61.7126 10.0579 62.0118 9.87099C62.1902 9.75957 62.4935 9.35968 62.686 8.98243C63.3855 7.61078 62.793 5.74637 61.4662 5.14481C60.49 4.70225 42.556 -0.0150603 41.9078 3.61551e-05C41.5524 0.00840484 37.2053 1.11159 32.2473 2.45141ZM50.9824 5.2454C55.7875 6.53746 59.7184 7.63622 59.7179 7.68709C59.7171 7.80031 42.356 12.4713 41.9693 12.4623C41.7255 12.4567 24.9098 7.98114 24.2812 7.75453C24.0327 7.66493 41.778 2.78139 42.082 2.85573C42.1723 2.87788 46.1774 3.95317 50.9824 5.2454ZM36.3636 14.0148C39.1993 14.7819 41.7324 15.4096 41.9931 15.4096C42.2536 15.4096 44.8017 14.7819 47.6554 14.0148C50.5091 13.2477 52.9141 12.62 53.0001 12.62C53.0949 12.62 53.1562 14.2645 53.1562 16.8044V20.9887H42H30.8438V16.8044C30.8438 13.8474 30.8972 12.62 31.0259 12.62C31.1261 12.62 33.528 13.2477 36.3636 14.0148ZM55.4203 24.0132C55.6639 24.1424 57.0068 25.3977 58.4043 26.8028L60.9453 29.3574H41.875C31.3863 29.3574 22.8088 29.3019 22.8137 29.2343C22.8332 28.9682 27.0188 24.1828 27.4012 23.9893C28.0444 23.6637 54.8046 23.6867 55.4203 24.0132ZM63 33.6238V34.9365H42H21V33.6238V32.311H42H63V33.6238ZM18.2109 35.437C18.2109 36.3178 19.2516 37.4319 20.3511 37.728L21 37.9028V39.2093V40.5156H13.125C8.79375 40.5156 5.25 40.4777 5.25 40.4315C5.25 40.2398 7.60233 35.6521 7.83595 35.3878C8.06745 35.126 8.53699 35.1006 13.1504 35.1006C18.1424 35.1006 18.2109 35.1052 18.2109 35.437ZM76.164 35.3878C76.3977 35.6521 78.75 40.2398 78.75 40.4315C78.75 40.4777 75.2063 40.5156 70.875 40.5156H63V39.2093V37.9028L63.6489 37.728C64.7484 37.4319 65.7891 36.3178 65.7891 35.437C65.7891 35.1052 65.8576 35.1006 70.8496 35.1006C75.463 35.1006 75.9326 35.126 76.164 35.3878ZM60.2109 39.2029V40.5156H42H23.7891V39.2029V37.8902H42H60.2109V39.2029ZM23.7891 58.8119V74.1545H14.0273H4.26562V58.8119V43.4693H14.0273H23.7891V58.8119ZM57.4219 58.8119V74.1545H53.2383H49.0547V65.527V56.8996L48.5751 56.4199L48.0956 55.9403H42H35.9044L35.4249 56.4199L34.9453 56.8996V65.527V74.1545H30.7617H26.5781V58.8119V43.4693H42H57.4219V58.8119ZM79.7344 58.8119V74.1545H69.9727H60.2109V58.8119V43.4693H69.9727H79.7344V58.8119ZM37.4062 46.2072C37.2709 46.2585 36.9941 46.4518 36.791 46.6366C36.4483 46.9485 36.4219 47.11 36.4219 48.8996C36.4219 49.9595 36.4678 50.9461 36.5238 51.0922C36.6453 51.4092 37.4238 51.838 37.8778 51.838C38.0558 51.838 38.4285 51.6468 38.7061 51.4132L39.2109 50.9883V49.043C39.2109 47.2574 39.1806 47.0637 38.8418 46.6843C38.4581 46.2549 37.8305 46.0462 37.4062 46.2072ZM45.6679 46.2539C44.9344 46.5573 44.7891 47.0232 44.7891 49.0704V50.9883L45.2939 51.4132C45.5715 51.6468 45.9442 51.838 46.1222 51.838C46.5762 51.838 47.3547 51.4092 47.4762 51.0922C47.5322 50.9461 47.5781 49.9595 47.5781 48.8996C47.5781 47.1126 47.5512 46.9474 47.209 46.6277C46.7601 46.2086 46.1406 46.0583 45.6679 46.2539ZM8.84674 48.0512C8.37178 48.5264 8.36719 48.5489 8.36719 50.4381C8.36719 52.2441 8.38852 52.3665 8.76996 52.7479C9.37027 53.3483 10.1948 53.3435 10.8161 52.7361C11.1604 52.3995 11.224 52.1586 11.2873 50.9534C11.3787 49.2114 11.2425 48.4634 10.7426 47.9634C10.1893 47.4101 9.45377 47.4441 8.84674 48.0512ZM17.2139 48.0512C16.7441 48.5212 16.7344 48.5662 16.7344 50.2747C16.7344 52.2431 16.9399 52.8616 17.6728 53.0984C18.3571 53.3196 18.8089 53.1852 19.2852 52.6192C19.7018 52.1242 19.7128 52.0541 19.6599 50.236C19.6071 48.4168 19.5922 48.3515 19.1451 47.9672C18.5084 47.42 17.8149 47.4502 17.2139 48.0512ZM64.8549 47.9674C64.4122 48.3478 64.3924 48.4305 64.3383 50.1117C64.3035 51.1934 64.3545 52.0356 64.4721 52.3196C64.9084 53.3731 66.5065 53.4865 67.0166 52.5001C67.1934 52.158 67.2656 51.5129 67.2656 50.2747C67.2656 48.5662 67.2559 48.5212 66.7861 48.0512C66.1849 47.4502 65.4916 47.42 64.8549 47.9674ZM73.2574 47.9634C72.7575 48.4634 72.6213 49.2114 72.7127 50.9534C72.776 52.1586 72.8396 52.3995 73.1839 52.7361C73.8052 53.3435 74.6297 53.3483 75.23 52.7479C75.6115 52.3665 75.6328 52.2441 75.6328 50.4381C75.6328 48.5489 75.6282 48.5264 75.1533 48.0512C74.5462 47.4441 73.8107 47.4101 73.2574 47.9634ZM8.84674 56.4199C8.37227 56.8946 8.36719 56.9194 8.36719 58.7901C8.36719 60.517 8.39918 60.717 8.73633 61.1002C8.93927 61.331 9.33598 61.5639 9.61784 61.618C10.0336 61.6976 10.2329 61.6243 10.6757 61.2286C11.2091 60.752 11.2229 60.706 11.2896 59.1795C11.3713 57.3082 11.1649 56.5304 10.4944 56.1836C9.79978 55.8243 9.38241 55.8842 8.84674 56.4199ZM17.2139 56.4199C16.7447 56.8892 16.7344 56.9368 16.7344 58.6245C16.7344 60.6722 16.8694 61.1044 17.6213 61.463C18.1036 61.6932 18.2631 61.7017 18.699 61.5211C19.5375 61.1737 19.7236 60.5954 19.6604 58.5323C19.6073 56.7932 19.5897 56.7181 19.1451 56.3359C18.5084 55.7887 17.8149 55.8189 17.2139 56.4199ZM64.8549 56.3359C64.4103 56.7181 64.3927 56.7932 64.3396 58.5323C64.2764 60.5954 64.4625 61.1737 65.301 61.5211C65.7369 61.7017 65.8964 61.6932 66.3787 61.463C67.1306 61.1044 67.2656 60.6722 67.2656 58.6245C67.2656 56.9368 67.2553 56.8892 66.7861 56.4199C66.1851 55.8189 65.4916 55.7887 64.8549 56.3359ZM73.4723 56.1913C72.8373 56.5361 72.6303 57.3482 72.7104 59.1795C72.7771 60.706 72.7909 60.752 73.3243 61.2286C73.7671 61.6243 73.9664 61.6976 74.3822 61.618C74.664 61.5639 75.0606 61.331 75.2637 61.1002C75.6008 60.717 75.6328 60.517 75.6328 58.7901C75.6328 56.9194 75.6277 56.8946 75.1533 56.4199C74.6268 55.8934 74.142 55.8276 73.4723 56.1913ZM46.1016 66.5242V74.1545H42H37.8984V66.5242V58.8939H42H46.1016V66.5242ZM9.24607 64.4718C8.51862 64.7653 8.36719 65.2404 8.36719 67.2296C8.36719 69.0703 8.37309 69.0986 8.84674 69.5725C9.38241 70.1083 9.79978 70.1682 10.4944 69.8088C11.1599 69.4647 11.372 68.6812 11.2888 66.875C11.2155 65.2819 11.0239 64.7791 10.3781 64.4847C9.92857 64.2799 9.72694 64.2776 9.24607 64.4718ZM17.5061 64.5709C16.8648 64.9186 16.7344 65.3915 16.7344 67.368C16.7344 69.0557 16.7447 69.1032 17.2139 69.5725C17.8151 70.1736 18.5084 70.2038 19.1451 69.6564C19.5877 69.276 19.6076 69.1933 19.6617 67.512C19.7256 65.5277 19.5576 64.9122 18.8523 64.5474C18.2823 64.2525 18.0867 64.256 17.5061 64.5709ZM65.1144 64.5551C64.4413 64.921 64.2753 65.5534 64.3383 67.512C64.3924 69.1933 64.4122 69.276 64.8549 69.6564C65.4432 70.1621 66.1351 70.1621 66.7232 69.6564C67.159 69.2816 67.1867 69.1761 67.2409 67.6763C67.3186 65.5241 67.2069 65.0247 66.5595 64.6299C65.9426 64.2537 65.6926 64.2409 65.1144 64.5551ZM73.574 64.4882C72.9737 64.7912 72.7827 65.3196 72.7112 66.875C72.628 68.6812 72.8401 69.4647 73.5056 69.8088C74.2002 70.1682 74.6176 70.1083 75.1533 69.5725C75.6277 69.0978 75.6328 69.0731 75.6328 67.2024C75.6328 65.4755 75.6008 65.2755 75.2637 64.8923C74.8471 64.4189 74.0763 64.2346 73.574 64.4882ZM21 78.4209V79.7336H11.8945H2.78906V78.4209V77.1081H11.8945H21V78.4209ZM60.2109 79.1593V81.2104H42H23.7891V79.1593V77.1081H42H60.2109V79.1593ZM81.2109 78.4209V79.7336H72.1055H63V78.4209V77.1081H72.1055H81.2109V78.4209Z" fill="#FFDC60"/>
</svg>
