<svg width="26" height="26" viewBox="0 0 26 26" fill="none" xmlns="http://www.w3.org/2000/svg">
<path fill-rule="evenodd" clip-rule="evenodd" d="M17.187 0.123288C16.3157 0.312649 15.4691 0.665444 14.7026 1.15856C14.1228 1.53173 13.4559 2.17587 7.9786 7.65394C4.4342 11.1988 1.72436 13.9639 1.4812 14.2837C0.372414 15.742 -0.181808 17.7861 0.0533394 19.5497C0.273221 21.198 0.930608 22.5742 2.06431 23.7594C4.51697 26.3235 8.44561 26.7359 11.4317 24.7427C11.9952 24.3666 24.0043 12.3801 24.5616 11.6376C25.2691 10.6949 25.7608 9.47964 25.9311 8.25288C26.0319 7.52692 26.0227 6.92414 25.8994 6.16231C25.428 3.24989 23.3285 0.946432 20.4578 0.192009C19.6006 -0.0332886 18.0569 -0.0656602 17.187 0.123288ZM20.3911 1.72973C21.0671 1.94652 21.6961 2.27401 22.2346 2.68977C24.684 4.58042 25.2147 8.13608 23.4263 10.6725C23.2494 10.9235 21.8788 12.3634 20.3806 13.8722L17.6566 16.6156L13.5304 12.4835L9.40427 8.3515L12.1765 5.56933C15.1525 2.58271 15.496 2.29232 16.5216 1.8957C17.4053 1.55402 17.7843 1.49277 18.8508 1.51931C19.6637 1.53955 19.8976 1.57151 20.3911 1.72973ZM18.4401 3.21176C17.5708 3.34618 16.5677 3.76214 15.6903 4.35203C15.0288 4.7968 14.0386 5.65629 13.9175 5.89078C13.6896 6.33233 13.8835 6.8511 14.3199 6.96748C14.6512 7.05582 14.8694 6.96021 15.3784 6.50365C16.77 5.25535 17.8822 4.70312 19.022 4.69441C19.7143 4.68919 20.0386 4.77321 20.4895 5.07464C21.0491 5.44883 21.141 5.48655 21.3819 5.44128C21.7996 5.36276 22.0625 4.96483 21.9805 4.53522C21.9075 4.15232 21.0682 3.55495 20.2762 3.32197C19.8077 3.18419 18.9509 3.13275 18.4401 3.21176ZM12.4843 13.5635L16.5912 17.6785L14.2982 19.9828C10.9987 23.2986 10.6041 23.6351 9.49312 24.0804C8.72361 24.3888 8.1752 24.4893 7.28171 24.4857C5.63205 24.4791 4.24033 23.8746 3.09657 22.6681C1.25098 20.721 0.977226 17.7997 2.42775 15.5303C2.66002 15.167 3.47034 14.3068 5.5243 12.2434C7.05444 10.7063 8.32232 9.44857 8.34189 9.44857C8.3614 9.44857 10.2255 11.3003 12.4843 13.5635Z" fill="#FF6060"/>
</svg>
