<svg width="76" height="86" viewBox="0 0 76 86" fill="none" xmlns="http://www.w3.org/2000/svg">
<path fill-rule="evenodd" clip-rule="evenodd" d="M2.6236 1.18026C2.40048 1.27033 2.04674 1.50559 1.83725 1.70313C0.943145 2.54723 1.00075 -0.301548 1.00075 43.0455V83.1427L1.36586 83.685C1.56658 83.9833 1.93704 84.3818 2.18905 84.5706C2.63869 84.9076 2.80778 84.9147 11.5195 84.9606C16.3993 84.9864 20.5608 84.9654 20.7672 84.9139C21.5115 84.7285 21.7249 83.1728 21.0656 82.7397C20.9628 82.6723 16.9721 82.5801 12.1973 82.535L3.51592 82.4529V42.996V3.53898H32.2375H60.9591L61.0028 7.18133L61.0464 10.8237L60.4348 10.9254C58.4698 11.252 55.5632 12.5074 54.5445 13.4695C53.7313 14.2375 54.0051 15.4506 55.0436 15.6812C55.4512 15.7718 55.7204 15.6701 56.5887 15.0983C63.2153 10.7331 71.9683 15.1374 72.4981 23.1036C72.6956 26.0723 71.6335 28.8745 69.4935 31.0307C67.4986 33.0408 65.5729 33.9235 62.8238 34.0877C59.8536 34.2652 57.2596 33.2612 55.1082 31.1014C52.0475 28.0287 51.2337 24.2351 52.7089 19.9165C53.0998 18.7717 53.1076 18.6855 52.8535 18.2936C52.4569 17.6816 51.9105 17.4764 51.3278 17.7205C49.8676 18.332 49.0179 23.5715 49.8474 26.8506C50.831 30.7387 53.3984 33.8449 57.0095 35.5157C58.1942 36.0638 60.0081 36.5975 60.686 36.5975H61.0414L61.0002 59.5252L60.9591 82.4529L43.1613 82.4946L25.3635 82.5364L25.0278 82.9679C24.6011 83.5162 24.6018 84.0155 25.03 84.5657L25.3679 85L43.5819 84.957L61.7958 84.9139L62.3688 84.4719C63.5621 83.5517 63.4743 85.5137 63.4748 59.7876L63.4754 36.6796L64.8593 36.4082C67.2222 35.9449 69.7966 34.4867 71.5144 32.6389C73.1313 30.8995 74.1044 29.0964 74.6898 26.7551C75.1861 24.7714 75.0752 21.6734 74.4406 19.7811C72.8668 15.0893 68.9418 11.7318 64.0908 10.9275L63.49 10.8279L63.4417 6.76018L63.3932 2.69226L62.956 2.11328C62.039 0.898564 64.7129 0.994869 32.213 1.00635C13.2258 1.01324 2.88745 1.07395 2.6236 1.18026ZM8.09775 10.3886C7.43942 10.8941 7.51553 12.2656 8.21701 12.5378C8.36809 12.5965 16.802 12.6444 26.9591 12.6444C44.7608 12.6444 45.4401 12.6334 45.8014 12.3375C46.3225 11.9109 46.3225 10.917 45.8014 10.4905C45.4401 10.1945 44.7593 10.1835 26.8956 10.1835C12.3216 10.1835 8.30788 10.2273 8.09775 10.3886ZM8.09775 16.9511C7.46749 17.4349 7.47106 18.4954 8.1044 18.9817C8.3306 19.1554 11.6415 19.1974 25.4346 19.2017L42.485 19.2069L42.8379 18.8273C43.2869 18.344 43.3004 17.5131 42.8661 17.0741C42.5457 16.7501 42.3253 16.746 25.4532 16.746C12.0333 16.746 8.30756 16.79 8.09775 16.9511ZM65.0361 17.3058C64.3003 17.5819 63.7065 18.1328 62.1396 19.9928C60.9942 21.3527 60.994 21.3529 60.652 21.0374C59.5511 20.0215 57.8613 19.8323 56.5941 20.5832C55.526 21.216 54.9839 22.1115 54.9044 23.3746C54.8629 24.0343 54.9248 24.5905 55.0826 24.9722C55.5501 26.1033 58.8049 29.7453 59.6964 30.135C60.8256 30.6285 62.6141 30.2595 63.4704 29.3565C64.735 28.0226 69.2345 22.4969 69.4184 22.0518C69.721 21.3197 69.6999 19.8015 69.3781 19.1577C68.5741 17.5487 66.615 16.7132 65.0361 17.3058ZM66.9772 20.1081C67.1317 20.3463 67.2026 20.6715 67.1471 20.8874C67.0007 21.4569 61.7221 27.633 61.2361 27.8033C60.8546 27.9368 60.717 27.8455 59.7379 26.8073C58.2514 25.2311 57.3081 23.9946 57.3081 23.6218C57.3081 23.2015 57.8738 22.6522 58.3065 22.6522C58.5034 22.6522 59.0309 23.0107 59.514 23.4725C60.1888 24.118 60.4863 24.2927 60.9088 24.292C61.6944 24.2907 62.1366 23.9272 63.9009 21.8319C64.7747 20.7942 65.5656 19.8909 65.6584 19.8246C66.0351 19.5557 66.7138 19.7016 66.9772 20.1081ZM8.52257 23.258C7.57232 23.446 7.28283 24.7255 8.04144 25.3852L8.4833 25.7694H25.4094C42.2875 25.7694 42.3368 25.7684 42.7631 25.4293C43.5162 24.8305 43.29 23.654 42.3586 23.3257C41.9943 23.1974 37.029 23.151 25.3575 23.1667C16.2897 23.179 8.71404 23.2201 8.52257 23.258ZM8.37831 29.8631C7.4954 30.2249 7.31869 31.3192 8.04144 31.9477L8.4833 32.3319H26.9042H45.3252L45.7995 31.8524C46.3994 31.2458 46.3994 30.793 45.7995 30.1865L45.3252 29.7069L27.0168 29.7172C16.9472 29.723 8.55989 29.7886 8.37831 29.8631ZM8.04144 36.6536C7.72583 36.9281 7.59974 37.1931 7.59974 37.5819C7.59974 37.9707 7.72583 38.2357 8.04144 38.5102L8.4833 38.8944H28.1978C49.7493 38.8944 48.7304 38.94 48.9722 37.966C49.1195 37.3729 48.8621 36.7266 48.3805 36.4804C48.0638 36.3183 43.7568 36.2737 28.2305 36.2719L8.4833 36.2694L8.04144 36.6536ZM8.04144 43.2161C7.48226 43.7024 7.44445 44.4978 7.95576 45.0149L8.31178 45.3749L30.6854 45.4175C44.7876 45.4446 53.2114 45.4018 53.4712 45.3019C54.3958 44.9465 54.6081 43.8755 53.8964 43.1559C53.5803 42.8363 53.2627 42.8319 31.0296 42.8319H8.4833L8.04144 43.2161ZM8.10635 49.618C7.44072 50.1294 7.5105 51.4747 8.21701 51.7487C8.36809 51.8074 18.6668 51.8553 31.1031 51.8553H53.7146L54.0637 51.4068C54.4827 50.8682 54.4038 50.1195 53.8819 49.6815C53.5598 49.411 52.2307 49.3947 30.9619 49.3996C12.696 49.4039 8.33093 49.4456 8.10635 49.618ZM8.09775 56.162C7.43942 56.6674 7.51553 58.039 8.21701 58.3112C8.36809 58.3699 18.6389 58.4178 31.0411 58.4178H53.5907L53.9889 58.015C54.2079 57.7936 54.3872 57.4211 54.3872 57.1873C54.3872 56.9536 54.2079 56.5811 53.9889 56.3596L53.5907 55.9569H30.9778C13.1381 55.9569 8.30853 56.0002 8.09775 56.162ZM40.4277 64.4394C40.207 64.5931 38.756 65.7483 37.2034 67.0065C35.6509 68.2647 33.4237 69.9947 32.2542 70.8509C31.0848 71.7072 30.0368 72.5226 29.9252 72.6628C29.3928 73.3326 30.0427 74.66 30.903 74.66C31.3056 74.66 32.5492 73.8449 34.9919 71.9803L36.4482 70.8688L36.6681 71.8696C37.047 73.5942 38.4907 74.617 39.9792 74.2154C40.6153 74.0438 40.6494 74.0556 41.1404 74.6211C41.8142 75.3969 42.7383 75.8004 43.8514 75.8048C45.1042 75.8097 46.1323 75.413 47.0665 74.5637L47.8611 73.8415L48.4873 74.1091C50.1816 74.8331 55.5374 74.3174 56.5073 73.3368C56.9879 72.8509 56.9237 71.9761 56.375 71.5398C55.892 71.1558 55.8681 71.1566 53.7382 71.6357C52.366 71.9443 49.9813 71.9992 49.3327 71.7372C49.0963 71.6417 48.6092 71.2636 48.2502 70.8969C47.8911 70.5302 47.4856 70.2303 47.3488 70.2303C46.6168 70.2303 45.9493 70.9323 45.9493 71.7019C45.9493 72.1915 45.1696 72.9966 44.4984 73.1998C44.008 73.3485 43.7878 73.3391 43.4151 73.1544C42.8064 72.8525 42.8405 72.6008 43.7682 70.5548C44.5536 68.8223 44.5763 68.5096 43.9587 67.9278C43.2536 67.2637 42.4001 67.5804 41.8276 68.7186C41.2704 69.8267 40.2669 71.1456 39.7433 71.4585C39.3373 71.701 39.2842 71.7019 39.1959 71.4696C38.9874 70.9202 39.3559 69.9937 40.4242 68.3813C41.0357 67.4583 41.7259 66.524 41.9578 66.3053C42.5023 65.7914 42.5116 65.0991 41.981 64.5628C41.5144 64.0909 40.9879 64.0492 40.4277 64.4394Z" fill="#FFDC60" stroke="#FFDC60" stroke-width="0.5"/>
</svg>
