<svg width="28" height="27" viewBox="0 0 28 27" fill="none" xmlns="http://www.w3.org/2000/svg">
<path fill-rule="evenodd" clip-rule="evenodd" d="M19.3737 0.0193313C19.3285 0.0370959 19.119 0.137838 18.9081 0.243176C18.4916 0.451187 19.1978 0.340116 10.5889 1.55146L9.6099 1.6892L9.36603 1.45628C9.0126 1.11875 8.68947 0.984806 8.22649 0.983841C7.46169 0.982252 7.61282 0.851259 3.72915 4.88223C0.999806 7.71503 0.244917 8.52959 0.141223 8.75366C-0.0495667 9.16588 -0.0466087 9.88776 0.147468 10.2725C0.222404 10.4212 0.936976 11.299 1.73536 12.2233C2.53374 13.1475 3.1954 13.9453 3.20564 13.9963C3.21594 14.0471 3.29789 14.321 3.38778 14.6049L3.55123 15.1211L3.40897 15.3383C3.08962 15.8258 3.00296 16.6687 3.21249 17.2489C3.48112 17.9927 4.12377 18.5422 4.85061 18.6496L5.10417 18.6871L5.13956 19.0968C5.23104 20.1568 5.97777 20.9603 7.01514 21.1151L7.41934 21.1755L7.47796 21.5422C7.55525 22.0255 7.75256 22.4304 8.0741 22.7653C8.39499 23.0997 8.7254 23.2803 9.18855 23.3743C9.62743 23.4634 9.7659 23.583 9.80069 23.9027C9.88806 24.7061 10.6887 25.5477 11.4858 25.674C11.6909 25.7065 11.8003 25.7786 12.1377 26.104C12.799 26.742 13.3379 27.0012 14.0003 27C14.6695 26.9987 15.2022 26.779 15.6863 26.3047C15.9781 26.0188 16.3609 25.344 16.3609 25.1156C16.3609 25.0283 16.4328 25.0719 16.7033 25.3231C17.1326 25.7219 17.5604 25.9474 18.064 26.0407C19.0713 26.2272 20.1118 25.689 20.5725 24.7433C20.6663 24.5508 20.7435 24.3605 20.744 24.3206C20.7464 24.1153 20.8367 24.0935 21.0576 24.245C22.5003 25.2342 24.4325 24.374 24.7477 22.6021C24.8541 22.0037 24.7171 21.3211 24.3926 20.8322L24.2086 20.5551L24.5216 20.4595C25.6254 20.1224 26.3621 18.7673 26.0915 17.5714C25.9694 17.0317 25.7396 16.6646 25.1147 16.0109L24.565 15.4358L24.9476 14.9325C26.1227 13.3869 27.091 11.6488 27.4314 10.4743C27.4976 10.2459 27.6529 9.81642 27.7765 9.51987C27.9818 9.02723 28.0011 8.93903 28 8.49826C27.999 8.10596 27.975 7.9681 27.8713 7.76043C27.6868 7.3905 20.9352 0.389947 20.5576 0.176999C20.3399 0.0542929 20.1947 0.0178556 19.8688 0.00429092C19.6417 -0.00518731 19.4189 0.00156671 19.3737 0.0193313ZM23.4393 4.73654C26.1718 7.56735 26.83 8.27782 26.8566 8.42522C26.8813 8.56143 26.8404 8.72721 26.6957 9.07802C26.589 9.33666 26.4115 9.82919 26.3014 10.1726C25.9543 11.2544 25.2806 12.4749 24.2505 13.8879L23.735 14.5952L19.3496 10.018L14.9641 5.44077L12.4444 5.39457L9.92459 5.34831L9.67426 5.19581C9.0533 4.81759 8.87314 3.97158 9.28364 3.36186C9.59587 2.89805 9.42847 2.93505 14.457 2.21805L19.0105 1.56877L19.3428 1.3708C19.9221 1.0255 19.609 0.768225 23.4393 4.73654ZM8.55269 2.30773C8.56628 2.33054 8.50377 2.44173 8.41383 2.55484C8.18426 2.84345 7.98459 3.3215 7.91996 3.73747C7.73097 4.95329 8.5161 6.16389 9.70548 6.49064C9.89841 6.54359 10.6426 6.57736 12.2226 6.60489L14.4659 6.64393L19.6176 12.0038C22.451 14.9517 24.8095 17.4441 24.8586 17.5424C25.0003 17.8256 25.029 18.1439 24.9403 18.4473C24.7265 19.1784 24.0598 19.5436 23.3652 19.3101C23.0905 19.2178 22.9107 19.0459 20.6336 16.699C19.2929 15.3172 18.1421 14.1582 18.0764 14.1235C17.6124 13.8787 17.059 14.392 17.2418 14.8975C17.2728 14.9834 18.6875 16.4966 20.3855 18.2603C23.4573 21.4509 23.4733 21.4687 23.5662 21.803C23.8492 22.8214 23.0076 23.6915 22.0236 23.398C21.7042 23.3027 21.6779 23.2774 18.5794 20.0788C16.495 17.9272 15.4116 16.8474 15.3202 16.8308C14.9266 16.759 14.5533 17.0752 14.5533 17.4804C14.5533 17.7118 14.5704 17.7312 17.0116 20.2712C18.3638 21.6781 19.507 22.9057 19.5522 22.9994C19.8503 23.6169 19.6216 24.3971 19.045 24.729C18.7398 24.9047 18.2552 24.9179 17.9221 24.7595C17.6789 24.6439 12.7456 19.5974 12.7456 19.4642C12.7456 19.2842 12.4495 18.7643 12.1994 18.5051C11.9252 18.2211 11.4203 17.9197 11.2185 17.9197C11.0551 17.9197 11.0375 17.8468 11.1046 17.4476C11.2631 16.5045 10.7689 15.5506 9.8972 15.1171C9.57555 14.9572 9.49086 14.9401 9.02076 14.9401C8.60473 14.9401 8.44954 14.9645 8.24692 15.0615L7.99352 15.1829L7.91957 14.9507C7.83456 14.6837 7.53843 14.2572 7.2864 14.0386C6.59697 13.4407 5.49934 13.3883 4.75623 13.918C4.60258 14.0275 4.46667 14.1171 4.45424 14.1171C4.4418 14.1171 4.41463 14.0232 4.39387 13.9085C4.30705 13.4288 4.16633 13.2322 2.68416 11.5188C1.85987 10.5658 1.17093 9.72629 1.15318 9.65302C1.13543 9.5798 1.13724 9.44966 1.15724 9.36379C1.20851 9.14306 7.89991 2.21499 8.08955 2.18621C8.23345 2.16442 8.51057 2.23712 8.55269 2.30773ZM6.39364 14.8721C6.80825 15.0993 6.99668 15.6653 6.80896 16.1196C6.70767 16.3647 5.68832 17.3902 5.49638 17.4401C5.41295 17.4618 5.22096 17.4672 5.06972 17.4522C4.49132 17.3946 4.16255 16.8879 4.28059 16.236C4.31149 16.0655 4.42981 15.9038 4.8488 15.4593C5.13989 15.1506 5.45201 14.8638 5.54239 14.8219C5.79399 14.7055 6.12512 14.725 6.39364 14.8721ZM9.44244 16.2225C9.9081 16.4561 10.1145 17.1535 9.84873 17.5957C9.71386 17.8201 7.8362 19.7526 7.66272 19.8455C7.45555 19.9565 7.02511 19.9316 6.79072 19.7951C6.4655 19.6057 6.30889 19.3258 6.31109 18.9378C6.31355 18.5028 6.40437 18.3763 7.56434 17.1917C8.52086 16.2148 8.64872 16.1213 9.04454 16.1087C9.13295 16.1059 9.31202 16.1571 9.44244 16.2225ZM11.1405 19.1738C11.5726 19.3905 11.7888 20.0356 11.5724 20.4624C11.5296 20.5467 11.1537 20.964 10.7371 21.3896C10.0739 22.0671 9.95111 22.1684 9.75276 22.2023C9.14796 22.3055 8.62467 21.8459 8.62467 21.2116C8.62467 21.0663 8.66279 20.8728 8.70935 20.7815C8.81924 20.5664 10.094 19.2639 10.308 19.1482C10.5379 19.024 10.8617 19.0339 11.1405 19.1738ZM12.7284 22.0665C12.9382 22.1487 13.1816 22.3936 13.2728 22.6145C13.4565 23.0594 13.3087 23.4598 12.7595 24.0057C12.3406 24.4219 12.1939 24.5034 11.8634 24.5034C11.35 24.5034 10.9816 24.1271 10.9492 23.5694C10.9312 23.261 10.9466 23.1993 11.1024 22.958C11.306 22.6422 11.7728 22.1916 12.0061 22.0854C12.2073 21.9938 12.5218 21.9856 12.7284 22.0665ZM15.0779 23.8553C15.3758 24.3771 15.3007 24.9831 14.8846 25.4142C14.4052 25.9109 13.7473 25.9348 13.1871 25.4758L13.0534 25.3663L13.4979 24.933C14.0328 24.4116 14.2973 24.015 14.4234 23.5452L14.5175 23.1942L14.7316 23.4089C14.8494 23.527 15.0052 23.7279 15.0779 23.8553Z" fill="#FF6060"/>
</svg>
