<svg width="32" height="32" viewBox="0 0 32 32" fill="none" xmlns="http://www.w3.org/2000/svg">
<path fill-rule="evenodd" clip-rule="evenodd" d="M8.70662 0.15075L8.53125 0.301562L8.51313 2.27575L8.49494 4.25H4.43975H0.384562L0.192312 4.41181L0 4.57363V18.1221V31.6704L0.16475 31.8353L0.329562 32H8.25506H16.1805L16.3559 31.8492L16.5312 31.6983L16.5625 19.4971L16.5938 7.29594L19.7126 19.2574C21.4279 25.8361 22.8701 31.3513 22.9174 31.5133C23.0109 31.8331 23.1883 32 23.4349 32C23.571 32 30.162 30.2721 31.3282 29.9307C31.7978 29.7932 32 29.6239 32 29.368C32 29.066 25.5773 4.55744 25.4659 4.43431C25.4088 4.37125 25.2851 4.30269 25.1909 4.282C25.0128 4.24288 17.1396 6.30237 16.7969 6.47775C16.7024 6.52612 16.6186 6.60012 16.6108 6.64225C16.6029 6.68431 16.5818 5.27487 16.5639 3.51019L16.5312 0.301562L16.3559 0.150813L16.1805 0H12.5312H8.882L8.70662 0.15075ZM15.4375 2.125V3.1875H12.5312H9.625V2.125V1.0625H12.5312H15.4375V2.125ZM15.4375 5.09375V5.875H12.5312H9.625V5.09375V4.3125H12.5312H15.4375V5.09375ZM8.5 6.15625V6.9375H4.78125H1.0625V6.15625V5.375H4.78125H8.5V6.15625ZM24.6879 5.51562C24.6881 5.52425 24.8136 6.00813 24.9667 6.591C25.1198 7.17387 25.2391 7.65631 25.2319 7.66306C25.1641 7.72625 18.3453 9.4935 18.3134 9.45606C18.2901 9.42869 18.1517 8.94287 18.0061 8.37644C17.8001 7.57587 17.7596 7.33981 17.8237 7.31581C18.0135 7.24475 24.4781 5.51375 24.5781 5.50719C24.6383 5.50325 24.6877 5.507 24.6879 5.51562ZM15.4375 16.25V25.5625H12.5312H9.625V16.25V6.9375H12.5312H15.4375V16.25ZM8.5 16V24H4.78125H1.0625V16V8H4.78125H8.5V16ZM25.6455 9.19656C25.7044 9.44219 25.7451 9.65038 25.7358 9.65925C25.7031 9.69013 18.8591 11.5049 18.8429 11.4869C18.8339 11.4769 18.7706 11.2692 18.7021 11.0254L18.5776 10.582L21.9607 9.67325C23.8214 9.17344 25.3875 8.76125 25.4411 8.75725C25.5118 8.752 25.5676 8.872 25.6455 9.19656ZM2.45806 9.65362C2.34906 9.701 2.2295 9.7965 2.19244 9.86581C2.09475 10.0483 2.09962 14.4606 2.19769 14.6447C2.35175 14.934 2.34669 14.9334 4.79338 14.9355L7.118 14.9375L7.29338 14.7867L7.46875 14.6359L7.48812 12.4274C7.50994 9.93356 7.49306 9.79294 7.15431 9.65137C6.84869 9.52375 2.75225 9.52562 2.45806 9.65362ZM6.375 12.2823V13.8771L4.79688 13.8604L3.21875 13.8438L3.20206 12.2656L3.18537 10.6875H4.78019H6.375V12.2823ZM26.0625 10.7755C26.0625 10.7896 26.7503 13.4394 27.591 16.6642C28.4317 19.8889 29.0952 22.5422 29.0656 22.5605C28.9378 22.6394 22.2456 24.3914 22.2096 24.3554C22.1531 24.299 19.1129 12.6162 19.1461 12.5831C19.1788 12.5504 25.8719 10.7604 25.9844 10.7543C26.0274 10.7519 26.0625 10.7615 26.0625 10.7755ZM29.6717 24.6384C29.8154 25.1957 29.9084 25.6668 29.8786 25.6852C29.8488 25.7037 28.3007 26.1246 26.4385 26.6208C24.1499 27.2304 23.0391 27.5006 23.0107 27.4542C22.9495 27.3541 22.4773 25.5013 22.5065 25.476C22.528 25.4574 29.2881 23.6402 29.3772 23.6292C29.3956 23.6269 29.5281 24.081 29.6717 24.6384ZM8.5 25.8438V26.625H4.78125H1.0625V25.8438V25.0625H4.78125H8.5V25.8438ZM15.4375 27.1875V27.6875H12.5312H9.625V27.1875V26.6875H12.5312H15.4375V27.1875ZM30.5092 27.8281C30.7511 28.7658 30.7747 28.9124 30.6906 28.9531C30.5576 29.0174 24.039 30.7501 23.9307 30.7498C23.8706 30.7498 23.7594 30.4212 23.5702 29.6848C23.4198 29.0991 23.3073 28.6108 23.3202 28.5998C23.3421 28.5809 30.1114 26.7634 30.1936 26.7542C30.2142 26.7519 30.3562 27.2351 30.5092 27.8281ZM8.5 29.3438V30.9375H4.78125H1.0625V29.3438V27.75H4.78125H8.5V29.3438ZM15.4375 29.875V30.9375H12.5312H9.625V29.875V28.8125H12.5312H15.4375V29.875Z" fill="#FFDC60"/>
</svg>
