<svg width="38" height="38" viewBox="0 0 38 38" fill="none" xmlns="http://www.w3.org/2000/svg">
<path fill-rule="evenodd" clip-rule="evenodd" d="M19.8288 0.17373C19.6813 0.318564 19.6433 0.431995 19.6433 0.727007C19.6433 1.07881 19.6177 1.12617 19.1512 1.63973C18.5229 2.33138 18.283 2.79134 18.283 3.30468C18.283 3.78662 18.3793 4.04622 18.6666 4.33886L18.8896 4.56609L18.8392 5.54518C18.8114 6.08361 18.76 6.5242 18.7248 6.5242C18.5936 6.5242 18.3586 6.82737 18.3586 6.9967C18.3586 7.09328 18.4308 7.26247 18.519 7.37263C18.6623 7.55154 18.6739 7.63001 18.627 8.10645C18.4028 10.3835 17.3045 14.1704 16.8682 14.1704C16.7921 14.1704 16.6542 14.2225 16.5618 14.286C16.3561 14.4275 16.3331 14.8426 16.5206 15.0267C16.5904 15.0953 16.6509 15.2289 16.6551 15.3237C16.6809 15.9015 17.5647 15.9621 17.7093 15.3961L17.7575 15.2077L20.1881 15.2273L22.6188 15.2469L22.8294 16.0634C22.9452 16.5126 23.0405 16.9134 23.0413 16.9543C23.042 16.9951 22.8765 17.1148 22.6734 17.2204C22.3155 17.4064 22.2989 17.4083 22.1264 17.2805C22.0285 17.2079 21.7662 17.0923 21.5435 17.0235C21.0156 16.8604 20.5137 16.9192 19.9714 17.2077L19.5539 17.4299L19.2748 17.2485C19.1213 17.1487 18.7993 17.0284 18.5592 16.981C18.1619 16.9026 18.1045 16.9082 17.9196 17.0433C17.5222 17.3333 17.6896 17.9564 18.1648 17.9564C18.4631 17.9564 18.744 18.0929 19.0891 18.4053C19.4945 18.7724 19.6885 18.7776 20.0252 18.4301C20.5959 17.8413 21.2317 17.8212 21.8024 18.3739C22.2475 18.805 22.4262 18.8007 22.9196 18.3472L23.3023 17.9956L23.3882 18.2915C23.5939 19.0003 23.5956 18.9793 23.3272 19.0345C23.1921 19.0623 22.9075 19.1763 22.6948 19.2878C22.3139 19.4875 22.305 19.4885 22.117 19.3539C21.8651 19.1738 21.3422 18.9957 21.0646 18.9957C20.6072 18.9957 20.33 19.3276 20.4749 19.7019C20.5535 19.9051 20.7352 20.0008 21.1752 20.0711C21.3634 20.1012 21.5889 20.2289 21.839 20.447C22.0473 20.6287 22.2859 20.7774 22.3693 20.7774C22.4526 20.7774 22.6547 20.6432 22.8183 20.4793C23.1271 20.1698 23.3872 20.035 23.6755 20.035C23.828 20.035 23.8645 20.118 24.0594 20.9073C24.1778 21.387 24.2903 21.8208 24.3093 21.8713C24.3283 21.9218 24.2622 21.9936 24.1624 22.0309C24.0625 22.0682 23.894 22.2274 23.7878 22.3845C23.6817 22.5417 23.3131 22.971 22.9688 23.3385C22.2241 24.1332 21.7982 24.7506 21.6448 25.258C21.3857 26.1152 21.5929 26.998 22.1776 27.5274L22.5149 27.8328V29.0157V30.1985L21.6282 32.3869C21.1405 33.5905 20.7325 34.5665 20.7216 34.5556C20.7106 34.5449 20.5651 33.2861 20.3982 31.7582C20.1927 29.8772 20.0448 28.8256 19.9399 28.5008C19.7881 28.031 19.3001 27.2705 18.9614 26.976C18.6989 26.7478 18.4358 26.1313 18.4349 25.7425C18.4343 25.4244 18.456 25.3856 18.7371 25.2029C19.536 24.6834 19.9811 23.5436 19.7949 22.4936C19.6264 21.5428 19.1887 20.8204 18.0192 19.5627C17.6448 19.1601 17.1769 18.63 16.9795 18.3848L16.6205 17.939V17.0892C16.6205 16.0147 16.5277 15.8071 16.0466 15.8047C15.6291 15.8027 15.5626 15.9632 15.5626 16.9705V17.8659L15.2306 18.3009C15.048 18.5402 14.57 19.0867 14.1682 19.5154C13.3289 20.411 12.7794 21.1766 12.5328 21.7941C12.3964 22.1358 12.3597 22.3786 12.3558 22.9673C12.3513 23.6502 12.3697 23.7484 12.5858 24.1922C12.8215 24.6764 13.3481 25.265 13.6219 25.3504C13.7498 25.3902 13.7632 25.4456 13.7273 25.7869C13.6765 26.2706 13.4549 26.7078 13.0345 27.1536C12.5909 27.624 12.3515 28.0214 12.179 28.5734L12.0325 29.0425L11.977 28.7516C11.8868 28.2781 11.5808 27.7257 11.1399 27.2403C10.6391 26.6889 10.4276 26.2998 10.3786 25.8389C10.3435 25.5096 10.3546 25.4835 10.5905 25.3416L10.8395 25.1919L10.8773 24.3671L10.9151 23.5423L11.3053 23.198C12.4375 22.1991 12.64 20.5829 11.8294 19.0144C11.4903 18.3583 11.1331 17.8988 10.0616 16.7405C9.57505 16.2146 9.03284 15.5966 8.85669 15.3671L8.53628 14.9499L8.53553 14.0743C8.53477 13.2441 8.5251 13.1892 8.34917 13.0165C8.11642 12.7877 7.85352 12.7839 7.64102 13.006C7.49207 13.1618 7.47673 13.2573 7.47673 14.0278C7.47673 14.8697 7.47432 14.8812 7.22252 15.2478C7.08272 15.4514 6.52034 16.1024 5.97277 16.6944C4.82821 17.9321 4.2965 18.6511 3.98161 19.3873C3.42104 20.698 3.66241 22.2162 4.57142 23.0972C4.77153 23.2912 4.96302 23.4499 4.99687 23.4499C5.0308 23.4499 5.05854 23.7818 5.05854 24.1874C5.05854 25.0582 5.13048 25.2893 5.43714 25.403C5.69868 25.4999 5.71674 25.621 5.55125 26.1683C5.47719 26.4133 5.29635 26.6999 5.01569 27.0169C4.53492 27.5601 4.28668 27.9464 4.11008 28.4261C4.02083 28.6685 3.3318 34.1962 3.32152 34.7522C3.32091 34.7829 3.02914 34.8079 2.67314 34.8079C1.99438 34.8079 1.78967 34.8656 1.69286 35.0842C1.66075 35.1568 1.58027 35.6003 1.51399 36.0699L1.39346 36.9236L0.801533 36.9607C0.330514 36.9902 0.187689 37.0273 0.102523 37.1419C-0.0567754 37.3563 -0.0276059 37.6559 0.170308 37.8386L0.34525 38H13.4621C25.8443 38 26.5876 37.9927 26.7352 37.8701C26.9762 37.6697 27.0093 37.3967 26.8211 37.1617L26.6602 36.9607H14.5659H2.4716L2.52586 36.4596C2.55571 36.184 2.59568 35.9335 2.61473 35.9029C2.65992 35.83 35.342 35.83 35.3872 35.9029C35.4062 35.9335 35.4462 36.184 35.476 36.4596L35.5303 36.9607H32.6554H29.7804L29.6238 37.1563C29.4181 37.4132 29.4261 37.5952 29.6527 37.8178L29.8382 38H33.758H37.6778L37.8422 37.8282C38.0475 37.6135 38.0531 37.3035 37.8553 37.1092C37.7333 36.9893 37.6034 36.9607 37.1803 36.9607C36.5731 36.9607 36.6168 37.0196 36.4938 36.0328C36.398 35.265 36.3037 34.9802 36.1119 34.8793C36.0371 34.84 35.6762 34.8078 35.3099 34.8077L34.6436 34.8074L33.9796 31.576C33.3804 28.6599 33.2898 28.2984 33.0517 27.873C32.6531 27.1604 32.1972 25.1931 32.066 23.6185L32.0151 23.0076L32.325 22.7121C32.7088 22.3462 32.9059 21.9752 33.0098 21.423C33.184 20.4974 32.7936 19.5857 31.7203 18.4105C30.4859 17.0589 30.5292 17.1335 30.527 16.3547C30.5253 15.7478 30.5079 15.665 30.3503 15.5196C30.1104 15.2982 29.8174 15.312 29.6238 15.5538C29.4924 15.718 29.4672 15.8542 29.4672 16.4018C29.4672 17.141 29.5327 17.0228 28.4823 18.1792C27.6884 19.0532 27.4543 19.3641 27.2327 19.8399C26.7432 20.8902 26.9055 21.9857 27.6566 22.7019C28.0105 23.0392 28.0246 23.1792 27.8379 24.5052C27.6293 25.9863 27.369 26.993 27.0064 27.7217C26.7432 28.2504 26.6292 28.6099 26.4698 29.4128C26.3473 30.0292 26.243 30.3949 26.2059 30.3374C26.1721 30.2852 26.144 29.7059 26.1433 29.0503L26.1422 27.858L26.5169 27.4762C26.9803 27.0039 27.1624 26.4802 27.1054 25.7833C27.0566 25.1865 26.8079 24.664 26.2422 23.9695L25.7885 23.4127L24.7464 19.3092C23.7961 15.5669 23.7147 15.1944 23.8216 15.0777C23.8862 15.0074 23.9605 14.865 23.9869 14.7611C24.0483 14.519 23.7845 14.1704 23.5397 14.1704C23.3986 14.1704 23.3241 14.0774 23.1389 13.6694C22.5883 12.4564 22.0986 10.61 21.8201 8.69655L21.6555 7.56535L21.8207 7.3926C22.0524 7.15037 22.0307 6.86583 21.7592 6.58678C21.5332 6.35449 21.5325 6.35071 21.5325 5.46894C21.5325 4.63186 21.543 4.57062 21.7278 4.33262C21.9871 3.99863 22.1511 3.44632 22.0897 3.11375C22.0094 2.6794 21.7289 2.21238 21.2004 1.63349C20.7179 1.10486 20.7012 1.07331 20.7012 0.692858C20.7012 0.355978 20.6725 0.276992 20.5021 0.145372C20.2406 -0.0566964 20.0554 -0.0489017 19.8288 0.17373ZM20.5739 2.51593C20.9035 2.87597 21.1647 3.42079 21.0987 3.61046C21.0754 3.67771 20.8188 3.70325 20.166 3.70325H19.2654V3.52249C19.2654 3.42309 19.3013 3.24923 19.345 3.13617C19.4322 2.91079 20.0706 2.14431 20.1711 2.14431C20.2056 2.14431 20.3869 2.31156 20.5739 2.51593ZM20.4745 5.63337V6.5242H20.1609H19.8474L19.8964 5.84465C19.9235 5.47094 19.9456 5.07007 19.9456 4.95382C19.9456 4.76185 19.9697 4.74255 20.21 4.74255H20.4745V5.63337ZM20.7232 8.51623C20.9675 10.3618 21.4698 12.4171 21.9734 13.6327L22.1961 14.1704H21.1086C20.4718 14.1704 20.0211 14.1412 20.0211 14.0999C20.0211 14.0611 20.1401 13.7063 20.2856 13.3115C20.4311 12.9168 20.5501 12.5462 20.5501 12.4879C20.5501 12.3149 20.1939 12.0176 19.9867 12.0176C19.683 12.0176 19.553 12.2149 19.1915 13.225L18.8531 14.1704H18.5303C18.3527 14.1704 18.2075 14.1566 18.2075 14.1397C18.2075 14.1228 18.3254 13.8052 18.4697 13.434C18.9771 12.1276 19.5484 9.63741 19.6882 8.12226L19.7397 7.56349H20.1683H20.597L20.7232 8.51623ZM8.21897 16.2528C8.39119 16.4669 8.39225 16.4786 8.27519 16.8742C8.14211 17.324 7.65681 18.0553 6.87611 18.9828C5.90067 20.1417 5.5619 21.0495 5.73057 22.0528C5.77924 22.3423 5.80251 22.5953 5.78233 22.6151C5.69407 22.7018 5.31177 22.5287 5.09662 22.3046C4.4385 21.6191 4.56817 20.1785 5.39444 18.9966C5.58034 18.7307 6.17967 18.0303 6.72641 17.4401C7.27308 16.8498 7.77145 16.2902 7.83395 16.1966C7.97707 15.982 8.0045 15.986 8.21897 16.2528ZM9.74213 18.1224C9.73956 18.3859 9.51331 18.8127 8.86599 19.7752C8.17491 20.8029 7.96279 21.3598 8.02725 21.9771C8.05007 22.1951 8.09247 22.4486 8.12156 22.5405C8.17325 22.7037 8.16123 22.7075 7.59507 22.7075H7.01561L6.89727 22.4292C6.71107 21.9916 6.68236 21.3737 6.82866 20.9547C6.97292 20.5415 7.2362 20.1649 8.17899 19.0228C8.54444 18.5802 8.93324 18.0377 9.04297 17.8174L9.24247 17.4169L9.49313 17.6856C9.63097 17.8334 9.74304 18.0299 9.74213 18.1224ZM30.8198 18.9927C31.7826 20.0596 31.9987 20.4663 31.9987 21.2108C31.9987 22.0502 32.0249 22.0394 29.9878 22.0394C28.4415 22.0394 28.3239 22.0298 28.1844 21.8928C27.866 21.5799 27.8847 20.8612 28.2283 20.2108C28.4332 19.8229 29.9027 18.1016 30.0052 18.1293C30.031 18.1363 30.3976 18.5249 30.8198 18.9927ZM11.1201 19.9608C11.3695 20.5732 11.363 21.5851 11.1069 22.0245C10.8466 22.471 10.5619 22.6233 9.93883 22.6491C9.4598 22.6689 9.41439 22.657 9.27368 22.4747C9.084 22.2291 9.01848 21.6937 9.13539 21.3457C9.18451 21.1995 9.44824 20.7696 9.7215 20.3904C9.99468 20.0112 10.307 19.5442 10.4155 19.3527L10.6128 19.0043L10.7833 19.2784C10.8771 19.4291 11.0287 19.7362 11.1201 19.9608ZM16.4655 20.4433C16.7974 21.6859 16.8274 23.1361 16.5418 24.1365C16.4627 24.4135 16.4603 24.4149 16.0606 24.4149H15.6588L15.554 23.951C15.4171 23.3447 15.415 21.4726 15.5506 20.9259C15.6063 20.7013 15.7421 20.2381 15.8524 19.8966L16.0528 19.2756L16.1798 19.5625C16.2497 19.7204 16.3783 20.1167 16.4655 20.4433ZM18.286 21.531C18.6182 22.0297 18.8172 22.6454 18.8214 23.1875C18.8273 23.9475 18.4709 24.4149 17.8856 24.4149C17.5856 24.4149 17.5843 24.4137 17.6335 24.1737C17.7776 23.4701 17.8259 22.4903 17.7535 21.7359C17.711 21.294 17.6567 20.8725 17.6328 20.7992C17.5753 20.6238 17.9944 21.0932 18.286 21.531ZM14.4327 21.3063C14.3232 21.9698 14.339 23.0827 14.468 23.7839C14.528 24.1106 14.5779 24.3862 14.5787 24.3964C14.5795 24.4065 14.4347 24.4149 14.257 24.4149C13.8534 24.4149 13.6216 24.2594 13.4402 23.8668C13.2017 23.3511 13.2939 22.5492 13.6762 21.8116C13.8409 21.494 14.4279 20.7515 14.4765 20.7993C14.4955 20.8179 14.4757 21.046 14.4327 21.3063ZM30.6713 23.115L30.9599 23.1629L31.0136 23.7703C31.043 24.1045 31.1315 24.762 31.2103 25.2315C31.2889 25.7011 31.354 26.1063 31.3548 26.1321C31.3557 26.1578 31.1949 26.2185 30.9975 26.2669C30.8 26.3153 30.4976 26.4355 30.3253 26.5341L30.012 26.7133L29.5074 26.455C29.2299 26.3128 28.9176 26.1966 28.8134 26.1966C28.647 26.1966 28.629 26.1718 28.6658 25.9924C28.7906 25.384 28.9381 24.38 28.9792 23.8582C29.0049 23.5315 29.0361 23.2309 29.0485 23.19C29.0754 23.1016 30.2604 23.0468 30.6713 23.115ZM25.0244 24.1937C25.77 25.0248 26.0622 25.5275 26.1188 26.0768C26.1513 26.3911 26.1297 26.4915 25.9935 26.6605L25.8289 26.8647H24.3285C23.0657 26.8647 22.8091 26.8462 22.7093 26.7481C22.4291 26.4729 22.4706 25.8629 22.811 25.2536C23.0034 24.9093 24.2333 23.4543 24.3285 23.4585C24.3493 23.4594 24.6625 23.7902 25.0244 24.1937ZM9.81936 24.0809V24.4149H7.96793H6.1165V24.0809V23.7468H7.96793H9.81936V24.0809ZM9.29038 25.7005C9.29038 25.9924 9.4793 26.6484 9.66845 27.0132C9.74258 27.1561 10.0112 27.5168 10.2653 27.8149C10.742 28.374 10.9529 28.7571 10.9529 29.0637C10.9529 29.2372 10.9406 29.2402 10.235 29.2402H9.51709V28.6209C9.51709 27.9036 9.35015 27.5001 8.90959 27.1526C8.26915 26.6473 7.54671 26.7012 6.9374 27.2999C6.5325 27.6977 6.41983 28.0107 6.41923 28.7391L6.41877 29.2402H5.69944H4.9801L5.02846 29.0361C5.13033 28.6058 5.35688 28.2067 5.7277 27.8045C6.29522 27.1889 6.71742 26.2759 6.72014 25.6584L6.72105 25.4542H8.00571H9.29038V25.7005ZM17.3963 25.9737C17.4513 26.5689 17.7833 27.2446 18.301 27.8144C18.7363 28.2937 18.9322 28.6239 19.0111 29.0116L19.0576 29.2402H18.3303H17.6029V28.7299C17.6029 28.1084 17.4492 27.6526 17.1274 27.3199C16.8407 27.0234 16.3724 26.7944 16.0484 26.7921C15.6718 26.7894 15.0261 27.1572 14.7696 27.5205C14.5633 27.8125 14.54 27.9064 14.5162 28.5412L14.49 29.2402H13.7874H13.0848L13.1404 28.999C13.2265 28.625 13.4365 28.2725 13.8179 27.8611C14.3027 27.3382 14.6342 26.694 14.7449 26.0595L14.8376 25.5285H16.0965H17.3552L17.3963 25.9737ZM29.0807 27.3428C29.1966 27.4017 29.3836 27.5687 29.4964 27.714L29.7016 27.9782H28.8962C28.2835 27.9782 28.0992 27.956 28.126 27.8854C28.1453 27.8344 28.2068 27.6674 28.2626 27.5143C28.3524 27.2678 28.3931 27.2359 28.6171 27.2359C28.7562 27.2359 28.9649 27.284 29.0807 27.3428ZM31.7649 27.5831C31.8312 27.7742 31.8854 27.9412 31.8854 27.9543C31.8854 27.9675 31.542 27.9782 31.1223 27.9782H30.3592L30.5068 27.7492C30.7104 27.4332 31.0401 27.2369 31.3682 27.2364C31.6298 27.2359 31.6509 27.2544 31.7649 27.5831ZM8.34041 27.9464C8.42837 28.0329 8.45912 28.2156 8.45912 28.6516V29.2402H7.95992H7.46071L7.48852 28.6397C7.51104 28.152 7.54361 28.0196 7.6621 27.9345C7.85556 27.7955 8.19282 27.8015 8.34041 27.9464ZM16.3596 27.9345C16.4781 28.0196 16.5107 28.152 16.5332 28.6397L16.561 29.2402H16.0618H15.5626V28.6516C15.5626 28.2156 15.5933 28.0329 15.6813 27.9464C15.8289 27.8015 16.1661 27.7955 16.3596 27.9345ZM25.0842 28.869V29.8341H24.3285H23.5728V28.869V27.904H24.3285H25.0842V28.869ZM32.9186 31.69C33.2167 33.1394 33.4822 34.436 33.5086 34.5714C33.5565 34.8172 33.5564 34.8173 33.2738 34.7941L32.9911 34.7708L32.3671 32.6293C31.9453 31.1816 31.6989 30.4549 31.6065 30.386C31.4061 30.2368 31.0977 30.2577 30.9377 30.4314C30.8607 30.5149 30.6214 31.1914 30.4058 31.9347C30.1902 32.6779 29.9937 33.2359 29.969 33.1747C29.9443 33.1135 29.7572 32.4852 29.5531 31.7786C29.1669 30.4409 29.0794 30.2864 28.7058 30.2819C28.3718 30.2778 28.2295 30.5474 27.8449 31.9127C27.6437 32.6272 27.4621 33.2419 27.4415 33.2786C27.4209 33.3153 27.3059 33.1027 27.1861 32.8061L26.9683 32.2669L27.277 30.735C27.4468 29.8925 27.6 29.1609 27.6177 29.1093C27.6427 29.0357 28.1611 29.0197 30.0131 29.035L32.3766 29.0546L32.9186 31.69ZM11.1063 30.2981C11.1075 30.3082 11.2197 31.3272 11.3556 32.5623L11.6028 34.8079H10.5599H9.51709V33.1991C9.51709 31.4114 9.49298 31.3177 9.03307 31.3199C8.50311 31.3225 8.45912 31.4728 8.45912 33.2812V34.8079H7.96793H7.47673V33.1991C7.47673 31.8063 7.45996 31.5721 7.35167 31.4546C7.16033 31.2469 6.76525 31.2773 6.57543 31.5144C6.42829 31.6981 6.41877 31.8043 6.41877 33.259V34.8079H5.39021H4.36157L4.40351 34.5666C4.42656 34.4339 4.53575 33.4568 4.64616 32.3952C4.75657 31.3337 4.85949 30.4234 4.87476 30.3723C4.89652 30.3 5.58805 30.2795 8.00337 30.2795C9.70873 30.2795 11.105 30.2879 11.1063 30.2981ZM19.1899 30.4647C19.1899 30.5258 19.2919 31.4835 19.4166 32.5931C19.5413 33.7026 19.6433 34.6548 19.6433 34.7091C19.6433 34.7835 19.4857 34.8079 19.005 34.8079H18.3668L18.3438 33.1823C18.3229 31.7064 18.3076 31.5424 18.1769 31.4007C18.0879 31.3042 17.9408 31.2446 17.7918 31.2446C17.6429 31.2446 17.4958 31.3042 17.4068 31.4007C17.2761 31.5424 17.2607 31.7064 17.2399 33.1823L17.2169 34.8079H16.8809H16.545V33.162C16.545 31.3335 16.5222 31.2435 16.0609 31.2457C15.5292 31.2483 15.487 31.3951 15.487 33.244V34.8079H15.1469H14.8069V33.1913C14.8069 31.8482 14.787 31.5466 14.6892 31.4096C14.5354 31.1939 14.1118 31.185 13.9001 31.3931C13.7581 31.5325 13.7489 31.6405 13.7489 33.1747V34.8079H13.2288C12.6282 34.8079 12.6188 34.7959 12.6156 34.0284C12.614 33.6099 12.8816 30.885 12.9601 30.5208L12.9961 30.3538H16.093C18.7908 30.3538 19.1899 30.3681 19.1899 30.4647ZM26.0105 32.7114C26.416 33.7215 26.7682 34.6066 26.7931 34.678C26.8333 34.7931 26.7815 34.8079 26.3374 34.8079H25.8362L25.8537 34.1948C25.8751 33.4421 25.6855 32.9839 25.2137 32.6481C24.6261 32.2301 24.0748 32.2149 23.4916 32.601C22.9746 32.9432 22.7427 33.471 22.742 34.3068L22.7416 34.8079H22.2882C22.0388 34.8079 21.8348 34.7857 21.8348 34.7586C21.8348 34.7315 22.1809 33.8462 22.604 32.7913L23.3732 30.8734L24.3232 30.8741L25.2731 30.8747L26.0105 32.7114ZM29.2859 34.788C29.2711 34.8025 29.004 34.8046 28.6925 34.7926L28.1259 34.7708L28.3761 33.8901C28.5137 33.4058 28.6492 32.9548 28.6771 32.8879C28.7089 32.8121 28.8377 33.1408 29.0204 33.764C29.1812 34.3127 29.3007 34.7734 29.2859 34.788ZM31.8452 34.6409C31.8872 34.8039 31.8734 34.8079 31.2742 34.8079C30.814 34.8079 30.6692 34.7846 30.6963 34.7151C30.7162 34.6641 30.8428 34.2381 30.9775 33.7686C31.1122 33.299 31.2412 32.8841 31.2641 32.8465C31.2977 32.7913 31.6439 33.8604 31.8452 34.6409ZM24.6875 33.4898C24.7487 33.5379 24.7819 33.7701 24.7819 34.1488V34.7336H24.2907H23.7996V34.2931C23.7996 34.0508 23.833 33.7659 23.874 33.66C23.9935 33.3515 24.4026 33.2659 24.6875 33.4898Z" fill="#FFDC60"/>
</svg>
