<svg width="26" height="24" viewBox="0 0 26 24" fill="none" xmlns="http://www.w3.org/2000/svg">
<path fill-rule="evenodd" clip-rule="evenodd" d="M9.3834 0.125416C8.86259 0.355427 8.56758 0.679812 8.36742 1.24263C8.28967 1.46134 8.2681 1.65873 8.2681 2.15202V2.78204L8.4411 2.96687C8.58285 3.11833 8.65261 3.15171 8.82759 3.15171C9.08509 3.15171 9.31456 3.01792 9.38152 2.82874C9.40864 2.75225 9.44105 2.46374 9.45357 2.18774C9.47764 1.65748 9.54281 1.4764 9.75636 1.34603C9.84622 1.29123 10.5447 1.27618 13.0022 1.27618C15.8988 1.27618 16.1438 1.2833 16.2695 1.37131C16.4745 1.51478 16.5225 1.65786 16.5469 2.19704C16.5592 2.46798 16.5914 2.75225 16.6185 2.82874C16.6854 3.01792 16.9149 3.15171 17.1724 3.15171C17.3483 3.15171 17.4171 3.11838 17.563 2.96252L17.74 2.77334L17.7232 2.07912C17.7083 1.4634 17.6912 1.35016 17.5717 1.07786C17.4002 0.686879 17.0877 0.353089 16.7218 0.169776L16.4344 0.0258224L13.0509 0.0129384L9.66732 0L9.3834 0.125416ZM1.3664 4.45822C0.853115 4.5676 0.374023 4.97608 0.125166 5.51651L0 5.78832V8.31621V10.8441L0.135851 11.1538C0.300196 11.5284 0.629648 11.8929 0.956708 12.0621C1.11057 12.1416 2.90864 12.5938 5.90353 13.3058L10.6086 14.4246L10.6089 15.434C10.6092 16.5644 10.6473 16.7959 10.8599 16.9576C11.001 17.0649 11.0735 17.0687 13 17.0687C14.9265 17.0687 14.999 17.0649 15.1401 16.9576C15.3527 16.7959 15.3908 16.5644 15.3911 15.434L15.3914 14.4246L20.0965 13.3058C23.0914 12.5938 24.8894 12.1416 25.0433 12.0621C25.3704 11.8929 25.6998 11.5284 25.8641 11.1538L26 10.8441V8.31621V5.78832L25.8751 5.51651C25.691 5.11542 25.3609 4.76667 24.9943 4.58581L24.6771 4.42924L13.1272 4.42125C6.77476 4.41685 1.48241 4.43348 1.3664 4.45822ZM24.4881 5.76522C24.8079 5.88433 24.8043 5.85514 24.8043 8.31697C24.8043 10.7367 24.7995 10.7819 24.5281 10.914C24.4058 10.9735 15.5862 13.1003 15.462 13.1002C15.429 13.1002 15.3945 12.9558 15.3794 12.7555C15.3509 12.376 15.254 12.1713 15.0576 12.0756C14.8764 11.9875 11.1236 11.9875 10.9424 12.0756C10.746 12.1713 10.6491 12.376 10.6206 12.7555C10.6055 12.9558 10.571 13.1002 10.538 13.1002C10.3883 13.1003 1.56926 10.9643 1.45198 10.8995C1.20165 10.7612 1.19559 10.6997 1.19681 8.30007C1.19809 5.84747 1.19218 5.89645 1.50098 5.76701C1.68659 5.68916 24.2792 5.68742 24.4881 5.76522ZM0.895296 13.332C0.828031 13.3689 0.724998 13.4683 0.666333 13.5527C0.560094 13.7056 0.559687 13.7236 0.559687 18.1192V22.5322L0.682004 22.8567C0.827472 23.2427 1.20114 23.6632 1.5773 23.8641L1.8317 24H13H24.1683L24.4227 23.8641C24.7989 23.6632 25.1725 23.2427 25.318 22.8567L25.4403 22.5322L25.456 18.319C25.4646 16.0018 25.4575 14.0021 25.4402 13.8751C25.3779 13.4183 25.026 13.1767 24.6277 13.3171C24.2495 13.4505 24.273 13.1612 24.2446 18.0176C24.2168 22.7817 24.2341 22.5362 23.9153 22.6801C23.6884 22.7825 2.31161 22.7825 2.08468 22.6801C1.76591 22.5362 1.78321 22.7814 1.75538 18.02C1.73503 14.5393 1.71641 13.6457 1.66227 13.5441C1.5369 13.3091 1.13795 13.1988 0.895296 13.332ZM14.1703 14.568V15.8183H13H11.8297V14.568V13.3176H13H14.1703V14.568Z" fill="#FF6060"/>
</svg>
