<svg width="79" height="79" viewBox="0 0 79 79" fill="none" xmlns="http://www.w3.org/2000/svg">
<path fill-rule="evenodd" clip-rule="evenodd" d="M49.2301 0.21811C44.4058 1.03899 40.4183 3.0627 36.9788 6.43587C32.5999 10.7307 30.2527 16.2889 30.2442 22.3845C30.2311 31.9054 36.1414 40.2739 45.2201 43.5887C48.0667 44.6281 50.9225 44.9646 55.9142 44.8487C58.6727 44.7845 59.8156 44.6951 60.8856 44.4598L62.275 44.154L65.3712 47.2244C68.4253 50.253 68.4762 50.2948 69.1268 50.2948C69.6496 50.2948 69.8795 50.2014 70.2374 49.8437L70.6886 49.3926V44.6908V39.989L72.3559 38.3128C75.6268 35.0247 77.6799 31.2725 78.6357 26.8368C78.9855 25.2134 79.1179 21.2755 78.879 19.6071C78.148 14.5042 76.0951 10.3102 72.5706 6.7186C69.0729 3.15453 64.9434 1.03374 59.8877 0.204992C58.1804 -0.0749604 50.8995 -0.065855 49.2301 0.21811ZM59.6765 3.37136C63.5744 4.04454 67.4718 6.04882 70.2148 8.79093C72.9825 11.5577 74.9826 15.4667 75.6463 19.4061C75.8876 20.8389 75.8461 24.3539 75.5699 25.8602C75.2783 27.4507 74.548 29.6409 73.8374 31.0563C72.8178 33.0876 71.8994 34.29 69.7341 36.429L67.601 38.5362V41.7414V44.9467L65.518 42.8993L63.4348 40.852L62.6234 40.921C62.177 40.959 61.2908 41.121 60.654 41.2814C59.6416 41.536 58.8852 41.5727 54.6333 41.574C49.2217 41.5754 48.4799 41.4743 45.5955 40.3423C38.2715 37.4679 33.4542 30.3981 33.4485 22.5156C33.446 19.196 33.988 16.8251 35.4112 13.9295C38.3517 7.94675 44.1157 3.92154 50.7298 3.23169C52.4138 3.05607 58.3912 3.14928 59.6765 3.37136ZM53.5134 10.9542C51.0865 11.526 48.9923 13.8383 48.5957 16.3841C48.4545 17.2911 48.4699 17.499 48.7161 18.0025C49.02 18.624 49.7238 18.9763 50.4024 18.8467C50.9472 18.7425 51.5271 18.0775 51.6254 17.444C51.8123 16.2402 52.0539 15.6694 52.6495 15.0234C54.4388 13.083 57.727 13.9494 58.345 16.5242C58.7867 18.365 57.7079 20.1272 55.8149 20.657C54.9718 20.893 54.139 21.5584 53.8043 22.2634C53.4248 23.0628 53.4421 27.695 53.8262 28.1691C54.4996 29 55.3762 29.0573 56.1153 28.3183L56.6402 27.7936V25.7671C56.6402 23.9738 56.6714 23.7303 56.9104 23.6513C58.6451 23.0784 60.1755 21.751 60.9738 20.1269C61.4795 19.0981 61.5031 18.974 61.5031 17.3489C61.5031 15.8118 61.4617 15.5598 61.0744 14.7328C59.7003 11.7996 56.5684 10.2344 53.5134 10.9542ZM8.16877 27.1559C4.16838 28.2029 1.28861 31.1072 0.28747 35.1047C-0.0157287 36.3147 -0.0234476 36.7407 0.0180801 49.9202L0.0606884 63.4899L0.481214 64.7246C1.06878 66.449 1.8859 67.7661 3.1572 69.0368C4.43097 70.3103 5.75044 71.1275 7.47083 71.7086L8.70585 72.1257L14.3406 72.176L19.9754 72.2263L23.386 75.6133C26.7523 78.9562 26.805 79 27.4503 79C27.967 79 28.1987 78.9054 28.5553 78.5489L29.0066 78.0978V75.1597V72.2217L37.6131 72.1768L46.2197 72.132L47.4547 71.7117C49.1796 71.1247 50.497 70.3077 51.7683 69.0368C53.041 67.7645 53.8585 66.4464 54.4423 64.7246L54.8612 63.4899L54.9092 56.8346L54.9572 50.1792L54.4746 49.6969C53.8086 49.0312 52.9949 49.0242 52.3402 49.6787L51.8758 50.1429L51.819 56.5078C51.7651 62.5481 51.7453 62.9175 51.4333 63.7526C50.5153 66.2084 48.9509 67.7733 46.4824 68.7053C45.6224 69.03 45.3862 69.0388 36.2279 69.0881L26.8536 69.1384L26.3863 69.6055C25.9202 70.0713 25.919 70.0776 25.9137 71.8742L25.9083 73.6757L23.7149 71.4379L21.5214 69.2001L15.4224 69.1134C9.7107 69.0322 9.26748 69.006 8.4431 68.6999C5.94172 67.7712 4.29188 66.0796 3.43709 63.5671C3.16384 62.764 3.14825 62.0088 3.14825 49.5232C3.14825 37.0375 3.16384 36.2823 3.43709 35.4792C4.29095 32.9694 5.92736 31.2898 8.4431 30.3414C9.2999 30.0184 9.55817 30.0082 18.1578 29.9584L26.9921 29.9072L27.4591 29.4403C28.1132 28.7864 28.1101 27.9706 27.4509 27.3117L26.9759 26.8368L18.1496 26.8453C9.89827 26.8533 9.24818 26.8735 8.16877 27.1559ZM54.4789 31.9404C53.4901 32.3432 53.2411 33.5825 53.9824 34.4119C54.6869 35.2 55.9183 35.0381 56.4071 34.0933C56.7504 33.4294 56.693 32.9183 56.2157 32.3946C55.745 31.8781 55.0669 31.7008 54.4789 31.9404ZM8.79493 39.658C8.13234 40.3204 8.13234 41.1324 8.79493 41.7948L9.26995 42.2697H21.1333H32.9966L33.4716 41.7948C34.1342 41.1324 34.1342 40.3204 33.4716 39.658L32.9966 39.1831H21.1333H9.26995L8.79493 39.658ZM8.79493 48.3004C8.13234 48.9628 8.13234 49.7749 8.79493 50.4372L9.26995 50.9121H26.1506H43.0312L43.5062 50.4372C44.1688 49.7749 44.1688 48.9628 43.5062 48.3004L43.0312 47.8255H26.1506H9.26995L8.79493 48.3004ZM8.79493 56.9428C8.13234 57.6052 8.13234 58.4173 8.79493 59.0797L9.26995 59.5545H22.9904C32.9217 59.5545 36.8175 59.5061 37.0967 59.3788C37.4595 59.2136 37.9605 58.4204 37.9605 58.0113C37.9605 57.6021 37.4595 56.8089 37.0967 56.6437C36.8175 56.5164 32.9217 56.468 22.9904 56.468H9.26995L8.79493 56.9428ZM41.3687 56.9428C41.003 57.3084 40.8937 57.5541 40.8937 58.0113C40.8937 58.8459 41.6026 59.5545 42.4374 59.5545C43.2723 59.5545 43.9812 58.8459 43.9812 58.0113C43.9812 57.5541 43.8719 57.3084 43.5062 56.9428C43.1405 56.5772 42.8947 56.468 42.4374 56.468C41.9802 56.468 41.7344 56.5772 41.3687 56.9428Z" fill="#FF6060"/>
</svg>
