<svg width="37" height="37" viewBox="0 0 37 37" fill="none" xmlns="http://www.w3.org/2000/svg">
<path fill-rule="evenodd" clip-rule="evenodd" d="M19.7413 0.0679377C18.9735 0.319733 18.7195 0.715267 18.4492 2.08011C18.1132 3.77665 18.2682 4.36255 19.1741 4.81893C19.7861 5.12735 20.3456 5.12669 20.8426 4.81682C21.3173 4.5208 21.4456 4.30746 21.8601 3.1256C22.1258 2.36817 22.2119 2.02028 22.2085 1.71814C22.2002 0.986033 21.7254 0.368838 21.002 0.149875C20.4426 -0.0195451 20.0799 -0.0431122 19.7413 0.0679377ZM10.5747 0.919125C10.0183 1.01325 9.4921 1.31539 9.06766 1.78454C8.78801 2.09369 8.08848 3.25125 6.51209 6.01363L4.34166 9.81705H3.46804C2.33648 9.81705 2.02152 9.92015 1.47792 10.4683C0.885118 11.0661 0.832081 11.2759 0.832154 13.0222C0.832226 14.4398 0.833673 14.4534 1.03786 14.8886C1.36801 15.5923 2.0017 16.0483 2.77821 16.1411L3.13239 16.1834L3.01329 16.4477C2.83537 16.8427 2.83834 19.5792 3.01713 19.9772L3.14006 20.2508H2.42288C1.53429 20.2508 1.07027 20.4058 0.622108 20.8525C0.0168587 21.4558 0 21.5244 0 23.3882C0 24.9937 0.00397951 25.0377 0.180236 25.3857C0.405332 25.8303 0.894885 26.2714 1.33994 26.4308L1.6803 26.5527L1.54051 26.8714C1.41389 27.16 1.40289 27.3361 1.42387 28.7367C1.44413 30.0849 1.46454 30.3155 1.58327 30.5354C1.66561 30.6878 1.6897 30.7975 1.64419 30.8128C1.41179 30.8909 0.89655 31.3083 0.725792 31.5568C0.368287 32.077 0.332181 32.2868 0.328781 33.865L0.325597 35.3309L0.546063 35.7757C0.793516 36.2752 1.13691 36.6148 1.6243 36.8422C1.95358 36.9958 1.95416 36.9958 11.0341 36.9958H20.1147L20.5243 36.793C20.9009 36.6064 21.3915 36.1611 21.465 35.9389C21.4879 35.8696 21.5678 35.8836 21.7845 35.995C22.3205 36.2709 23.5497 36.6627 24.3309 36.807C26.6338 37.232 28.7702 36.9566 30.8563 35.9659C31.9808 35.4319 32.8941 34.7719 33.8667 33.7906C35.4202 32.2233 36.3272 30.5575 36.8016 28.4003C37.0352 27.3378 37.0671 25.5658 36.8729 24.4191C36.6845 23.3056 36.3291 22.2162 35.8429 21.2616C35.221 20.0407 34.192 18.7044 33.7968 18.6044C33.4997 18.5291 33.2174 18.7649 33.1883 19.1126C33.168 19.3532 33.2168 19.4435 33.6376 19.9437C36.3683 23.1902 36.6442 27.9191 34.3123 31.5046C32.9211 33.6437 30.7448 35.1272 28.1655 35.6944C27.3243 35.8795 25.2778 35.8795 24.4366 35.6944C20.4976 34.8281 17.6208 31.8855 16.8473 27.9316C16.6615 26.9821 16.6792 25.2609 16.8848 24.2832C17.6146 20.813 19.9859 18.1163 23.2867 17.0029C24.2516 16.6774 25.1901 16.5302 26.301 16.5302C28.1834 16.5302 29.9395 17.0384 31.471 18.0264C31.6879 18.1663 31.9589 18.2808 32.0733 18.2808C32.3704 18.2808 32.6127 17.9995 32.583 17.6893C32.5523 17.369 32.1044 17.0232 31.0403 16.4979C30.1103 16.0389 29.3843 15.7862 28.3707 15.5684C27.4007 15.3601 25.4414 15.3407 24.4338 15.5294L23.7605 15.6555L23.457 15.451C23.0442 15.1728 22.8244 15.0846 22.403 15.0282L22.0445 14.9803L22.1468 14.6878C22.2221 14.4726 22.2489 14.0077 22.2484 12.927C22.2478 11.5352 22.2388 11.4393 22.0758 11.0865C21.8622 10.6238 21.4602 10.2111 21.0255 10.0084C20.7332 9.87199 20.5219 9.84915 19.2553 9.81705L17.8171 9.78057L15.5802 5.87704C14.3393 3.71157 13.2274 1.85378 13.0831 1.70465C12.7363 1.34647 12.1088 1.0193 11.5816 0.921898C11.107 0.834196 11.0769 0.834123 10.5747 0.919125ZM20.8744 1.34275C21.1463 1.54486 21.129 1.80534 20.7769 2.81259C20.5337 3.50822 20.4163 3.74885 20.2822 3.82656C20.0334 3.97081 19.6036 3.87756 19.4538 3.647C19.3448 3.47926 19.3478 3.40695 19.4973 2.61063C19.6998 1.53275 19.7699 1.30014 19.9211 1.20602C20.0907 1.10044 20.6578 1.18172 20.8744 1.34275ZM11.7939 2.18343C11.9928 2.27806 12.2262 2.43369 12.3125 2.52935C12.4626 2.69563 16.7884 10.1984 17.1629 10.9417C17.5965 11.8025 17.26 12.8385 16.4123 13.2523C16.129 13.3906 15.9127 13.4222 14.9971 13.4586C14.0395 13.4968 13.9047 13.5178 13.8139 13.6433C13.7281 13.7617 13.7106 14.4998 13.7072 18.1305C13.7042 21.298 13.6797 22.5447 13.6168 22.729C13.5674 22.8734 13.425 23.0533 13.2845 23.1485C13.0439 23.3117 12.9982 23.3152 11.1248 23.3152C9.53182 23.3152 9.17062 23.296 8.97042 23.2002C8.49143 22.9709 8.5017 23.0797 8.5017 18.2249C8.5017 12.9622 8.61501 13.4649 7.42919 13.4657C7.00432 13.4659 6.39994 13.4268 6.08613 13.3786L5.51562 13.291L5.3445 13.4916C5.1351 13.7371 5.12685 13.9696 5.31874 14.2156C5.49897 14.4466 5.97536 14.5597 6.76873 14.5597H7.34402V14.7785V14.9974L5.01058 14.9971C2.82531 14.9969 2.66244 14.9879 2.44589 14.8547C1.98375 14.5705 1.95358 14.4558 1.95358 12.9812C1.95358 11.7523 1.96487 11.6366 2.10278 11.4503C2.38771 11.0654 2.5817 10.9748 3.21306 10.9311L3.80674 10.8901L3.76195 11.1014C3.73735 11.2177 3.70204 11.388 3.68344 11.4799C3.62129 11.7877 3.74212 12.3812 3.90608 12.5735C4.11012 12.8126 4.46603 12.8246 4.68903 12.5998C4.82737 12.4602 4.8451 12.3736 4.82709 11.9251C4.81023 11.5075 4.83881 11.3394 4.97889 11.0333C5.17461 10.6054 9.33328 3.3191 9.67385 2.80726C10.1736 2.05633 11.0094 1.81044 11.7939 2.18343ZM25.7222 3.37441C25.2758 3.53726 25.0432 3.73448 24.3375 4.54838C23.6897 5.2956 23.5305 5.52645 23.4357 5.85501C23.2458 6.51365 23.4378 7.09451 24.0145 7.60641C24.4981 8.03558 25.0069 8.1567 25.5885 7.98101C26.0877 7.83019 27.6775 6.4142 27.8984 5.92359C28.2922 5.04898 27.7826 3.93593 26.7713 3.46211C26.4968 3.33355 25.9579 3.28846 25.7222 3.37441ZM26.5755 4.67169C26.8797 4.92984 26.9909 5.22942 26.8677 5.45882C26.8147 5.55754 26.4491 5.92184 26.0554 6.26842C25.2438 6.98265 25.0493 7.04474 24.6951 6.70247C24.3699 6.38837 24.4193 6.18064 24.9737 5.5301C25.8123 4.54605 25.8737 4.49074 26.1287 4.49074C26.2718 4.49074 26.4449 4.56086 26.5755 4.67169ZM29.3037 9.23999C29.1446 9.2707 28.591 9.44786 28.0737 9.63369C27.0605 9.99756 26.7728 10.1972 26.5045 10.7222C26.1696 11.3777 26.4299 12.4388 27.0338 12.8799C27.5543 13.2601 27.8582 13.2829 29.1048 13.0357C30.3637 12.7861 30.6265 12.6802 30.9586 12.2889C31.3847 11.7871 31.4565 11.2958 31.2179 10.5166C30.9258 9.56314 30.186 9.06969 29.3037 9.23999ZM29.8573 10.4066C30.1797 10.5806 30.3229 11.3679 30.0736 11.5954C29.9934 11.6686 29.539 11.7977 28.9484 11.9151C28.043 12.095 27.9409 12.1025 27.7625 12.0019C27.5127 11.861 27.3906 11.4316 27.5271 11.1743C27.5991 11.0386 27.8312 10.9219 28.5346 10.6678C29.5255 10.3099 29.6371 10.2878 29.8573 10.4066ZM20.6681 11.1135C21.088 11.3769 21.1638 11.6672 21.1637 13.0106C21.1636 14.3066 21.1 14.5386 20.6647 14.8318C20.4196 14.9969 20.4099 14.9974 17.6077 14.9974H14.7966V14.7785V14.5597H15.4413C16.8188 14.5597 17.7027 14.0168 18.2527 12.8331C18.4282 12.4552 18.4505 12.3223 18.4505 11.6528V10.8983L19.4273 10.9232C20.2919 10.9451 20.4344 10.967 20.6681 11.1135ZM7.34402 18.2123V20.2598L6.01052 20.2371C4.7959 20.2163 4.65879 20.2008 4.47298 20.0632C4.0709 19.7654 4.01591 19.5378 4.01606 18.1713C4.01628 16.7847 4.06816 16.6002 4.53962 16.3104C4.75147 16.1801 4.90581 16.1654 6.05972 16.1651L7.34402 16.1648V18.2123ZM21.6881 16.4184C20.1833 17.1304 18.7065 18.3702 17.6228 19.8312L17.3116 20.2508H16.0541H14.7966V18.2078V16.1648L18.5048 16.1675L22.213 16.1701L21.6881 16.4184ZM24.7816 18.8598C22.4999 19.3457 20.5675 20.8993 19.568 23.0512C18.6146 25.1039 18.6429 27.418 19.6466 29.4806C21.4791 33.2463 25.9978 34.752 29.7017 32.8312C33.1796 31.0275 34.6922 26.6665 33.0687 23.1233C32.0557 20.9123 30.1089 19.3398 27.7859 18.8563C26.9346 18.6792 25.6227 18.6807 24.7816 18.8598ZM27.0988 19.8896C29.1142 20.1416 30.9968 21.4819 31.9103 23.3152C33.4873 26.4801 32.2235 30.3033 29.0867 31.8578C28.1083 32.3427 27.6795 32.4478 26.5181 32.4876C25.4034 32.5259 24.8426 32.4361 23.9518 32.0764C21.8959 31.2462 20.4321 29.3855 20.074 27.1468C19.9572 26.4171 20.0263 25.1925 20.2241 24.4865C20.7155 22.7323 22.0178 21.1901 23.6474 20.4327C24.8011 19.8965 25.8428 19.7326 27.0988 19.8896ZM25.8656 21.0398C25.7478 21.136 25.6937 21.2753 25.6675 21.5502C25.632 21.9221 25.6267 21.9296 25.3331 22.0092C24.9069 22.1248 24.6658 22.264 24.292 22.61C23.8403 23.0282 23.625 23.5157 23.6262 24.1178C23.6279 25.0776 24.1473 25.6541 25.4654 26.1594L25.6498 26.2301V27.7572V29.2843L25.3423 29.2463C25.1732 29.2253 24.8394 29.1259 24.6007 29.0252C24.3619 28.9245 24.0491 28.8269 23.9056 28.8081C23.6865 28.7796 23.62 28.8059 23.4896 28.9731C23.2741 29.2492 23.2932 29.4927 23.5494 29.7339C23.8194 29.9883 24.669 30.3101 25.2256 30.3687C25.6456 30.413 25.6498 30.4158 25.6498 30.6475C25.6498 31.1801 25.87 31.4871 26.252 31.4871C26.5812 31.4871 26.7644 31.2554 26.806 30.7864C26.8435 30.3641 26.845 30.3619 27.1153 30.3055C27.8393 30.1546 28.6965 29.4856 29.02 28.8189C29.6725 27.4741 28.9971 26.1545 27.3781 25.6108L26.8075 25.4192V24.2271V23.0351L27.0611 23.1058C27.2006 23.1446 27.4817 23.2544 27.6858 23.3497C27.9758 23.4852 28.0969 23.5077 28.2403 23.4528C28.6689 23.2885 28.7434 22.8367 28.3958 22.5093C28.1582 22.2856 27.5615 22.0319 27.0962 21.9568C26.8122 21.9111 26.8075 21.9053 26.8075 21.6011C26.8075 21.0051 26.2876 20.6952 25.8656 21.0398ZM7.35972 22.1296C7.38049 22.6035 7.43866 23.019 7.50668 23.1795C7.67628 23.5792 8.13204 24.047 8.53788 24.238C8.89198 24.4046 8.94676 24.4083 11.1104 24.4089L13.321 24.4097L13.6969 24.2208C13.9036 24.1169 14.185 23.8997 14.3221 23.7381C14.6804 23.316 14.7966 22.9055 14.7966 22.0619V21.3452H15.7372C16.2545 21.3452 16.6778 21.363 16.6778 21.3846C16.6778 21.4063 16.6163 21.5458 16.5412 21.6947C16.1754 22.4196 15.7522 23.9613 15.6306 25.0116L15.5821 25.4312L8.69547 25.4309C1.99714 25.4306 1.80258 25.4267 1.57763 25.2884C1.13214 25.0145 1.08793 24.8682 1.06058 23.5761C1.0456 22.8673 1.06695 22.3028 1.11477 22.1417C1.2118 21.8151 1.50216 21.5116 1.80128 21.4241C1.92486 21.388 3.21835 21.3554 4.67572 21.3518L7.32543 21.3452L7.35972 22.1296ZM25.6498 24.0449C25.6498 24.5665 25.6209 24.9934 25.5856 24.9934C25.5503 24.9934 25.3637 24.8867 25.1708 24.7562C24.6348 24.3937 24.5745 24.0124 24.9769 23.5301C25.1291 23.3477 25.4673 23.1252 25.6317 23.0992C25.6416 23.0977 25.6498 23.5232 25.6498 24.0449ZM15.6174 27.1496C15.6891 28.0046 15.937 29.1137 16.236 29.9166L16.5084 30.648L9.96009 30.6666C3.47152 30.6851 3.409 30.6839 3.10309 30.5346C2.87502 30.4232 2.75383 30.2995 2.63922 30.0607C2.49581 29.762 2.4859 29.644 2.50826 28.5111C2.53495 27.1555 2.57518 27.0177 3.02472 26.7413C3.24917 26.6033 3.4378 26.5991 9.41359 26.5989L15.5713 26.5986L15.6174 27.1496ZM27.6515 26.9708C27.7862 27.0547 27.9444 27.2171 28.0031 27.3316C28.1399 27.5984 28.14 28.0794 28.0032 28.346C27.8572 28.6308 27.3714 29.0371 27.0625 29.1326L26.8075 29.2116V27.9083V26.6051L27.107 26.7116C27.2718 26.7703 27.5168 26.8868 27.6515 26.9708ZM17.5179 32.3809C18.0684 33.1736 19.1716 34.3142 19.9157 34.8602C20.244 35.1011 20.5126 35.3215 20.5126 35.3499C20.5126 35.4216 20.2199 35.6836 20.029 35.7828C19.9145 35.8423 17.4349 35.8648 11.0208 35.8646C2.37621 35.8644 2.16529 35.861 1.9394 35.7222C1.49029 35.446 1.44963 35.3072 1.423 33.959C1.4013 32.8584 1.41331 32.7065 1.54651 32.4029C1.66315 32.1371 1.75931 32.0367 2.00474 31.9243C2.30602 31.7864 2.53684 31.7821 9.70764 31.7806L17.0999 31.7789L17.5179 32.3809Z" fill="#FFDC60"/>
</svg>
